<svg width="1356" height="417" viewBox="0 0 1356 417" fill="none" xmlns="http://www.w3.org/2000/svg">
<g clip-path="url(#clip0_18_2)">
<rect width="1356" height="417" fill="#56684E"/>
<path d="M1330.31 101.452C1329.13 102.01 1328.62 103.434 1329.18 104.634C1329.74 105.811 1331.17 106.318 1332.37 105.756L1343.15 100.625L1345.73 114.402C1345.96 115.687 1347.21 116.541 1348.5 116.301C1349.78 116.062 1350.64 114.815 1350.4 113.53L1347.59 98.5151L1356.78 94.1414L1357.38 97.3406C1357.62 98.6249 1358.86 99.4795 1360.15 99.2398C1361.43 99 1362.29 97.7529 1362.05 96.4686L1361.21 92.0085L1371.63 87.0681C1372.8 86.5101 1373.31 85.0862 1372.75 83.8863C1372.19 82.7097 1370.77 82.2022 1369.57 82.7645L1360.28 87.1557L1357.97 74.7559L1368.38 69.8155C1369.56 69.2576 1370.07 67.8337 1369.5 66.6337C1368.94 65.4571 1367.52 64.9497 1366.32 65.512L1357.04 69.9265L1354.01 53.6971C1353.77 52.4127 1352.53 51.5581 1351.24 51.7979C1349.96 52.0377 1349.1 53.2847 1349.34 54.569L1352.6 72.0361L1343.42 76.4097L1342.36 70.7353C1342.12 69.4509 1340.87 68.5963 1339.59 68.8361C1338.3 69.0759 1337.45 70.3229 1337.69 71.6072L1338.98 78.5194L1327.03 84.1809C1325.86 84.7389 1325.35 86.1627 1325.91 87.3627C1326.47 88.5393 1327.89 89.0468 1329.09 88.4844L1339.88 83.3531L1342.19 95.7529L1330.25 101.414L1330.31 101.452ZM1344.37 81.2815L1353.56 76.9079L1355.88 89.3076L1346.69 93.6813L1344.37 81.2815Z" fill="#3F240C" fill-opacity="0.04"/>
<path d="M1348.76 302.28C1341.74 302.092 1335.96 305.563 1335.83 310.035C1335.7 314.506 1341.31 318.291 1348.33 318.479C1355.03 318.653 1360.6 315.486 1361.2 311.315L1373.1 285.893L1413.17 296.489L1402.96 318.308C1400.76 315.987 1396.86 314.372 1392.34 314.249C1385.32 314.061 1379.52 317.537 1379.41 322.027C1379.31 326.494 1384.9 330.283 1391.91 330.471C1398.62 330.645 1404.19 327.479 1404.79 323.307L1416.83 297.594L1460.25 309.085L1450.04 330.904C1447.84 328.583 1443.92 326.972 1439.4 326.849C1432.38 326.661 1426.58 330.137 1426.47 334.627C1426.34 339.098 1431.95 342.884 1438.97 343.071C1445.68 343.246 1451.25 340.079 1451.85 335.908L1463.94 310.088L1467 303.548L1467.98 301.455L1468.51 300.367L1473.38 289.96L1475.19 286.093L1428.11 273.618L1428.16 273.511L1380.75 260.976L1377.67 267.52L1376.62 269.771L1373.56 276.311L1372.57 278.404L1369.5 284.948L1359.46 306.372C1357.26 304.052 1353.33 302.441 1348.81 302.318L1348.76 302.28ZM1463.27 302.503L1419.85 291.012L1419.91 290.905L1420.84 288.919L1464.26 300.41L1463.27 302.503ZM1424.95 280.128L1468.37 291.62L1467.32 293.871L1423.9 282.379L1424.95 280.128ZM1381.28 268.442L1421.34 279.038L1420.29 281.289L1380.22 270.693L1381.28 268.442ZM1377.14 277.237L1417.18 287.837L1416.2 289.931L1376.16 279.33L1377.14 277.237Z" fill="#3F240C" fill-opacity="0.04"/>
<path d="M1273.11 -25.9027C1272.98 -21.4316 1278.59 -17.6463 1285.61 -17.4585C1292.31 -17.2841 1297.88 -20.4507 1298.48 -24.6223L1310.38 -50.0439L1350.45 -39.4479L1340.24 -17.6295C1338.04 -19.95 1334.14 -21.5655 1329.62 -21.6886C1322.6 -21.8764 1316.8 -18.4005 1316.69 -13.9104C1316.59 -9.44367 1322.17 -5.65403 1329.19 -5.46623C1335.9 -5.2918 1341.47 -8.45851 1342.07 -12.6301L1354.11 -38.3434L1397.53 -26.8518L1387.32 -5.03333C1385.12 -7.3538 1381.2 -8.96495 1376.68 -9.08809C1369.66 -9.2759 1363.86 -5.79999 1363.75 -1.3099C1363.62 3.1612 1369.23 6.94648 1376.25 7.13429C1382.95 7.30872 1388.53 4.142 1389.12 -0.0295891L1401.22 -25.8494L1404.28 -32.3889L1405.26 -34.4822L1405.78 -35.5704L1410.66 -45.9771L1412.47 -49.8442L1365.39 -62.3193L1365.44 -62.4257L1318.03 -74.9609L1314.95 -68.417L1313.9 -66.1661L1310.84 -59.6266L1309.85 -57.5333L1306.77 -50.9894L1296.73 -29.5648C1294.54 -31.8853 1290.61 -33.4964 1286.09 -33.6195C1279.07 -33.8073 1273.29 -30.3358 1273.16 -25.8647L1273.11 -25.9027ZM1400.55 -33.4571L1357.13 -44.9486L1357.18 -45.0551L1358.11 -47.0419L1401.54 -35.5504L1400.55 -33.4571ZM1362.22 -55.8323L1405.65 -44.3408L1404.59 -42.0899L1361.17 -53.5815L1362.22 -55.8323ZM1318.55 -67.5182L1358.61 -56.9222L1357.56 -54.6714L1317.5 -65.2674L1318.55 -67.5182ZM1314.42 -58.7001L1354.46 -48.0998L1353.47 -46.0065L1313.43 -56.6068L1314.42 -58.7001Z" fill="#3F240C" fill-opacity="0.04"/>
<path d="M49.0303 285.574C48.0218 285.738 47.3484 286.661 47.5125 287.67L54.6352 333.197C51.5829 332.51 47.5051 333.32 43.7705 335.709C37.9597 339.404 35.1664 345.411 37.5232 349.103C39.88 352.795 46.5051 352.815 52.3158 349.12C57.7791 345.635 60.5238 340.145 58.8617 336.419L51.1538 287.111C50.9897 286.102 50.0665 285.429 49.0536 285.569L49.0303 285.574Z" fill="#3F240C" fill-opacity="0.04"/>
<path d="M44.48 475.544C46.7403 479.496 53.5942 479.835 59.7945 476.285C65.6239 472.95 68.7423 467.389 67.2131 463.47L63.0837 425.044C67.0778 424.951 76.3469 425.154 80.1397 428.771L81.5178 412.854C81.5178 412.854 70.1553 409.853 61.6681 411.897C61.485 410.916 60.6085 410.234 59.6146 410.347C58.5741 410.468 57.8072 411.409 57.929 412.45L63.051 459.946C59.9172 459.081 55.6643 459.73 51.6656 461.999C45.4654 465.549 42.2708 471.607 44.5311 475.559L44.48 475.544Z" fill="#3F240C" fill-opacity="0.04"/>
<path d="M-50.6091 369.424C-55.9718 373.059 -58.559 378.617 -56.8078 382.302L-47.7178 431.377C-47.6088 431.961 -47.2093 432.418 -46.7046 432.662L-46.6812 432.657C-46.3384 432.811 -45.981 432.913 -45.584 432.839C-45.584 432.839 -45.5606 432.835 -45.5373 432.83L13.3513 440.709L13.3383 440.639C13.5892 440.689 13.8315 440.692 14.0883 440.644C15.0925 440.457 15.7338 439.491 15.5507 438.51L7.13929 393.199C10.2252 393.807 14.2535 392.862 17.924 390.388C23.6298 386.52 26.2655 380.445 23.8007 376.822C21.3359 373.198 14.7223 373.369 9.01652 377.238C3.65383 380.873 1.06664 386.431 2.81784 390.115L10.8063 433.161L-45.0823 425.689L-52.552 385.422C-49.4661 386.03 -45.4378 385.085 -41.7673 382.611C-36.0615 378.743 -33.4258 372.668 -35.8906 369.044C-38.3554 365.421 -44.969 365.592 -50.6748 369.461L-50.6091 369.424Z" fill="#3F240C" fill-opacity="0.04"/>
<path d="M1.79545 192.172L-16.069 235.888C-18.3934 233.664 -22.4053 232.238 -26.9539 232.338C-34.0052 232.495 -39.654 236.28 -39.5393 240.778C-39.4245 245.275 -33.6223 248.783 -26.571 248.627C-19.9297 248.474 -14.6125 245.113 -14.0839 240.955L4.00126 196.738L44.7375 205.372L28.2444 245.691C25.92 243.466 21.9081 242.04 17.3595 242.141C10.3082 242.297 4.65938 246.082 4.77412 250.58C4.88886 255.078 10.6911 258.586 17.7425 258.429C24.3837 258.277 29.701 254.916 30.2295 250.757L48.4828 206.147L51.2387 199.422L3.0308 189.211L1.83778 192.14L1.79545 192.172Z" fill="#3F240C" fill-opacity="0.04"/>
<path d="M-2.93062 140.325C2.89881 136.989 6.01718 131.429 4.48796 127.509L0.358581 89.0836C4.35268 88.9903 13.6218 89.193 17.4146 92.8105L18.7927 76.8939C18.7927 76.8939 7.43022 73.8922 -1.05701 75.9359C-1.24013 74.9552 -2.11661 74.273 -3.11046 74.3861C-4.15102 74.5078 -4.91786 75.4485 -4.79608 76.489L0.325909 123.985C-2.80794 123.12 -7.06076 123.769 -11.0594 126.038C-17.2597 129.588 -20.4543 135.646 -18.194 139.598C-15.9337 143.55 -9.07981 143.889 -2.87956 140.339L-2.93062 140.325Z" fill="#3F240C" fill-opacity="0.04"/>
<path d="M1219.8 385.973C1223.37 380.088 1223.22 373.47 1219.48 371.195C1215.72 368.924 1209.79 371.844 1206.23 377.73C1202.86 383.263 1202.83 389.408 1205.97 392.011L1234.71 432.826C1235.3 433.658 1236.45 433.854 1237.26 433.268C1238.09 432.678 1238.29 431.53 1237.7 430.721L1211.17 393.047C1214.22 392.308 1217.49 389.787 1219.8 385.973Z" fill="#3F240C" fill-opacity="0.04"/>
<path d="M1296.01 98.2128C1295.01 98.3769 1294.33 99.3001 1294.5 100.309L1301.62 145.836C1298.57 145.149 1294.49 145.959 1290.75 148.348C1284.94 152.043 1282.15 158.05 1284.51 161.742C1286.86 165.434 1293.49 165.454 1299.3 161.759C1304.76 158.274 1307.51 152.784 1305.85 149.058L1298.14 99.7496C1297.97 98.7411 1297.05 98.0677 1296.04 98.2084L1296.01 98.2128Z" fill="#3F240C" fill-opacity="0.04"/>
<path d="M1062.27 265.872C1056.2 268.166 1052.38 272.986 1053.25 276.957L1052.17 297.626C1051.89 298.572 1051.85 299.499 1052.04 300.405L1050.69 326.805C1050.69 326.805 1050.7 326.899 1050.71 326.946L1049.5 350.37C1049.45 351.395 1050.24 352.239 1051.24 352.294C1052.24 352.348 1053.11 351.558 1053.16 350.557L1055.54 304.536C1058.4 305.84 1062.53 305.865 1066.69 304.316C1073.12 301.882 1077.11 296.594 1075.55 292.488C1074.01 288.378 1067.52 287.027 1061.09 289.437C1059.19 290.154 1057.54 291.139 1056.15 292.244L1056.73 280.972C1059.58 282.275 1063.72 282.3 1067.87 280.751C1074.31 278.318 1078.3 273.029 1076.73 268.923C1075.19 264.813 1068.71 263.462 1062.27 265.872Z" fill="#3F240C" fill-opacity="0.04"/>
<path d="M1181.18 261.312C1180.18 261.499 1179.53 262.441 1179.72 263.445L1188.04 308.289C1184.32 306.835 1179.09 307.69 1174.33 310.923C1167.69 315.399 1164.9 322.445 1167.97 326.972C1169.51 329.246 1172.24 330.451 1175.68 330.364C1176.43 330.346 1177.21 330.249 1177.98 330.105C1180.43 329.647 1182.94 328.598 1185.24 327.034C1190.66 323.363 1193.52 317.948 1192.67 313.637C1192.68 313.465 1192.7 313.292 1192.67 313.129L1183.34 262.77C1183.15 261.766 1182.19 261.124 1181.2 261.307L1181.18 261.312ZM1183.21 324.101C1180.75 325.77 1178 326.741 1175.55 326.812C1174.3 326.852 1172.04 326.646 1170.91 324.996C1169.04 322.228 1171.5 317.153 1176.31 313.912C1178.26 312.581 1180.35 311.732 1182.26 311.374C1185.07 310.851 1187.51 311.386 1188.61 313.016C1190.48 315.785 1188.02 320.859 1183.21 324.101Z" fill="#3F240C" fill-opacity="0.04"/>
<path d="M1358.12 354.759L1360.88 348.034L1312.67 337.823L1311.48 340.753L1293.61 384.469C1291.29 382.244 1287.28 380.819 1282.73 380.919C1275.68 381.075 1270.03 384.861 1270.14 389.358C1270.26 393.856 1276.06 397.364 1283.11 397.207C1289.75 397.055 1295.07 393.694 1295.6 389.535L1313.68 345.319L1354.42 353.953L1337.93 394.271C1335.6 392.047 1331.59 390.621 1327.04 390.721C1319.99 390.878 1314.34 394.663 1314.46 399.161C1314.57 403.658 1320.37 407.166 1327.42 407.01C1334.07 406.857 1339.38 403.496 1339.91 399.338L1358.16 354.727L1358.12 354.759Z" fill="#3F240C" fill-opacity="0.04"/>
<path d="M1291.44 288.164C1293.7 292.116 1300.55 292.455 1306.75 288.905C1312.58 285.57 1315.7 280.009 1314.17 276.09L1310.04 237.664C1314.03 237.571 1323.3 237.774 1327.1 241.391L1328.47 225.474C1328.47 225.474 1317.11 222.473 1308.62 224.516C1308.44 223.536 1307.56 222.854 1306.57 222.967C1305.53 223.088 1304.76 224.029 1304.89 225.07L1310.01 272.565C1306.87 271.701 1302.62 272.35 1298.62 274.619C1292.42 278.169 1289.23 284.227 1291.49 288.179L1291.44 288.164Z" fill="#3F240C" fill-opacity="0.04"/>
<path d="M1146.29 357.626C1141.64 356.947 1137.75 357.819 1134.59 359.302C1132.38 355.365 1130.15 351.455 1128.04 347.743C1128.07 347.687 1128.11 347.632 1128.15 347.577C1142.5 323.076 1133.59 299.825 1122.56 289.922C1111.52 280.02 1105.57 300.174 1108.67 315.57C1110.21 323.352 1114.37 332.556 1118.11 339.737C1111.6 352.261 1103.94 367.249 1106.15 380.561C1109.79 402.235 1132.12 413.363 1151.73 401.026C1155.65 408.801 1160.33 416.628 1159.18 424.599C1157.99 432.723 1147.56 436 1146.46 434.802C1145.46 433.709 1146.5 432.911 1146.69 432.779C1146.69 432.779 1146.69 432.779 1146.71 432.774C1150.16 430.368 1151.69 425.877 1150.17 421.762C1148.36 416.88 1142.92 414.392 1138.04 416.198C1134.29 417.599 1131.97 421.1 1131.9 424.859C1131.4 431.236 1137.54 446.159 1156.85 436.343C1172.66 428.317 1160.97 405.608 1156.25 397.645C1171.71 383.377 1159.83 359.617 1146.32 357.645L1146.29 357.626ZM1118.02 300.436C1122.2 299.898 1126.19 306.933 1126.23 319.201C1126.25 323.017 1123.96 328.253 1120.89 334.312C1113.22 316.532 1114.36 300.925 1118.02 300.436ZM1121.49 396.161C1113.17 387.588 1113.67 374.107 1125.33 352.526C1126.09 353.905 1128 357.368 1130.47 361.835C1126.65 364.796 1124.74 368.126 1124.74 368.126C1117.55 387.23 1134.81 396.597 1138.31 395.92C1141.81 395.266 1140.68 392.167 1140.68 392.167C1127.15 390.391 1128.86 377.772 1136.22 372.29C1140.98 380.97 1146.16 390.443 1149.25 396.27C1142.12 400.767 1128.59 403.534 1121.47 396.165L1121.49 396.161ZM1153.26 392.645C1151.11 388.746 1146.27 380.055 1140.7 370.125C1142.73 369.601 1144.95 369.597 1147.25 370.302C1161.79 374.742 1157.18 386.55 1153.29 392.641L1153.26 392.645Z" fill="#3F240C" fill-opacity="0.04"/>
<path d="M1234.89 333.108C1233.72 333.666 1233.21 335.09 1233.77 336.29C1234.33 337.467 1235.75 337.974 1236.95 337.412L1247.74 332.281L1250.31 346.058C1250.55 347.342 1251.8 348.197 1253.08 347.957C1254.37 347.717 1255.22 346.47 1254.98 345.186L1252.18 330.171L1261.37 325.797L1261.97 328.996C1262.21 330.281 1263.45 331.135 1264.74 330.896C1266.02 330.656 1266.88 329.409 1266.64 328.125L1265.8 323.664L1276.21 318.724C1277.39 318.166 1277.9 316.742 1277.34 315.542C1276.77 314.342 1275.35 313.858 1274.15 314.42L1264.88 318.835L1262.56 306.435L1272.97 301.495C1274.15 300.937 1274.66 299.513 1274.1 298.313C1273.54 297.136 1272.11 296.629 1270.91 297.191L1261.64 301.606L1258.61 285.376C1258.37 284.092 1257.12 283.237 1255.84 283.477C1254.55 283.717 1253.7 284.964 1253.94 286.248L1257.2 303.715L1248.01 308.089L1246.95 302.415C1246.71 301.13 1245.46 300.276 1244.18 300.515C1242.89 300.755 1242.04 302.002 1242.28 303.286L1243.57 310.199L1231.63 315.86C1230.45 316.418 1229.94 317.842 1230.5 319.042C1231.06 320.219 1232.49 320.726 1233.69 320.164L1244.47 315.032L1246.79 327.432L1234.84 333.094L1234.89 333.108ZM1248.99 312.933L1258.17 308.559L1260.49 320.959L1251.3 325.333L1248.99 312.933Z" fill="#3F240C" fill-opacity="0.04"/>
<path d="M933.075 221.073C931.899 221.631 931.391 223.054 931.954 224.254C932.512 225.431 933.935 225.938 935.135 225.376L945.922 220.245L948.494 234.022C948.734 235.307 949.981 236.161 951.265 235.921C952.55 235.682 953.404 234.435 953.165 233.15L950.361 218.135L959.549 213.762L960.146 216.961C960.386 218.245 961.633 219.1 962.918 218.86C964.202 218.62 965.057 217.373 964.817 216.089L963.984 211.629L974.395 206.688C975.572 206.13 976.079 204.706 975.517 203.506C974.959 202.33 973.535 201.822 972.335 202.385L963.058 206.799L960.743 194.399L971.154 189.459C972.331 188.901 972.839 187.477 972.276 186.277C971.718 185.101 970.294 184.593 969.094 185.156L959.817 189.57L956.787 173.341C956.547 172.056 955.3 171.202 954.016 171.441C952.732 171.681 951.877 172.928 952.117 174.213L955.378 191.68L946.19 196.053L945.131 190.379C944.891 189.094 943.644 188.24 942.359 188.48C941.075 188.719 940.22 189.966 940.46 191.251L941.751 198.163L929.807 203.824C928.63 204.382 928.123 205.806 928.685 207.006C929.243 208.183 930.667 208.69 931.867 208.128L942.653 202.997L944.968 215.396L933.024 221.058L933.075 221.073ZM947.163 200.874L956.351 196.5L958.666 208.9L949.478 213.274L947.163 200.874Z" fill="#3F240C" fill-opacity="0.04"/>
<path d="M1196.35 182.067C1190.99 185.703 1188.4 191.261 1190.15 194.945L1199.24 244.02C1199.35 244.604 1199.75 245.061 1200.26 245.305L1200.28 245.301C1200.62 245.454 1200.98 245.557 1201.38 245.482C1201.38 245.482 1201.4 245.478 1201.42 245.474L1260.31 253.352L1260.3 253.282C1260.55 253.332 1260.79 253.335 1261.05 253.287C1262.05 253.1 1262.7 252.158 1262.51 251.154L1254.1 205.843C1257.19 206.451 1261.21 205.505 1264.88 203.032C1270.59 199.163 1273.23 193.089 1270.76 189.465C1268.3 185.841 1261.68 186.012 1255.98 189.881C1250.61 193.516 1248.03 199.074 1249.78 202.759L1257.77 245.805L1201.88 238.332L1194.41 198.065C1197.49 198.673 1201.52 197.728 1205.19 195.254C1210.9 191.386 1213.54 185.311 1211.07 181.688C1208.61 178.064 1201.99 178.235 1196.29 182.104L1196.35 182.067Z" fill="#3F240C" fill-opacity="0.04"/>
<path d="M951.547 421.872C944.528 421.684 938.748 425.156 938.616 429.627C938.484 434.098 944.097 437.883 951.116 438.071C957.818 438.246 963.389 435.079 963.988 430.907L975.891 405.486L1015.95 416.082L1005.75 437.9C1003.55 435.58 999.647 433.964 995.129 433.841C988.11 433.653 982.307 437.129 982.203 441.619C982.094 446.086 987.683 449.876 994.702 450.063C1001.4 450.238 1006.98 447.071 1007.57 442.9L1019.62 417.186L1063.04 428.678L1052.83 450.496C1050.63 448.176 1046.71 446.565 1042.19 446.442C1035.17 446.254 1029.37 449.73 1029.26 454.22C1029.13 458.691 1034.74 462.476 1041.76 462.664C1048.46 462.838 1054.03 459.672 1054.63 455.5L1066.73 429.68L1069.78 423.141L1070.77 421.047L1071.29 419.959L1076.16 409.553L1077.98 405.685L1030.9 393.21L1030.95 393.104L983.54 380.569L980.46 387.113L979.406 389.364L976.35 395.903L975.363 397.996L972.283 404.54L962.243 425.965C960.046 423.644 956.12 422.033 951.602 421.91L951.547 421.872ZM1066.04 422.1L1022.62 410.609L1022.67 410.502L1023.6 408.515L1067.02 420.007L1066.04 422.1ZM1027.74 399.721L1071.16 411.212L1070.1 413.463L1026.68 401.972L1027.74 399.721ZM984.04 388.039L1024.1 398.635L1023.05 400.886L982.986 390.29L984.04 388.039ZM979.934 396.853L1019.97 407.453L1018.99 409.547L978.948 398.946L979.934 396.853Z" fill="#3F240C" fill-opacity="0.04"/>
<path d="M1064.55 184.781L1068.46 189.006L1073.39 194.32L1075.48 196.588L1082.07 203.67L1103.61 226.86C1099.62 228.426 1095.66 232.452 1093.24 238.002C1089.48 246.606 1090.89 255.551 1096.38 257.932C1101.88 260.314 1109.37 255.289 1113.13 246.662C1116.66 238.559 1115.57 230.256 1110.86 227.293L1085.15 199.591L1118.39 155.252L1140.32 178.875C1136.33 180.441 1132.37 184.467 1129.95 190.018C1126.2 198.621 1127.6 207.543 1133.1 209.948C1138.6 212.352 1146.09 207.305 1149.84 198.678C1153.38 190.574 1152.29 182.271 1147.58 179.308L1118.24 147.716L1114.88 144.09L1112.79 141.822L1106.2 134.74L1101.24 129.407L1097.36 125.224L1058.01 177.713L1064.6 184.796L1064.55 184.781ZM1111.79 148.146L1078.56 192.485L1076.46 190.217L1109.7 145.878L1111.79 148.146ZM1069.87 183.135L1067.61 180.706L1100.85 136.367L1103.11 138.795L1069.87 183.135Z" fill="#3F240C" fill-opacity="0.04"/>
<path d="M1166.35 115.728C1160.65 116.792 1156.91 122.274 1157.97 127.949C1159.03 133.623 1164.52 137.383 1170.19 136.324C1175.87 135.265 1179.63 129.778 1178.57 124.103C1177.51 118.429 1172.02 114.668 1166.35 115.728Z" fill="#3F240C" fill-opacity="0.04"/>
<path d="M1013.33 272.714C1012.27 267.016 1006.78 263.279 1001.11 264.338C995.434 265.398 991.673 270.885 992.733 276.559C993.792 282.234 999.279 285.994 1004.95 284.935C1010.63 283.875 1014.39 278.388 1013.33 272.714Z" fill="#3F240C" fill-opacity="0.04"/>
<path d="M977.183 317.789C967.118 319.668 960.214 327.989 961.779 336.373C963.344 344.756 972.786 350.025 982.851 348.146C992.915 346.267 999.82 337.946 998.255 329.563C996.689 321.179 987.248 315.91 977.183 317.789ZM982.267 345.017C978.437 345.732 974.324 340.918 973.081 334.263C971.839 327.607 973.938 321.633 977.767 320.918C981.597 320.203 985.71 325.018 986.952 331.673C988.195 338.328 986.096 344.302 982.267 345.017Z" fill="#3F240C" fill-opacity="0.04"/>
<path d="M1143.23 56.0785L1171.97 96.893C1172.56 97.7253 1173.71 97.9217 1174.51 97.3357C1175.35 96.7453 1175.54 95.597 1174.96 94.7881L1148.42 57.1142C1151.47 56.3752 1154.75 53.8546 1157.06 50.0404C1160.62 44.155 1160.47 37.5371 1156.74 35.2621C1152.98 32.9915 1147.05 35.9114 1143.48 41.7968C1140.12 47.3307 1140.08 53.4756 1143.23 56.0785Z" fill="#3F240C" fill-opacity="0.04"/>
<path d="M988.497 16.3606C989.498 16.4154 990.365 15.6251 990.42 14.6241L992.799 -31.3965C995.652 -30.0927 999.789 -30.0676 1003.95 -31.6171C1010.38 -34.0506 1014.37 -39.3388 1012.81 -43.4449C1011.27 -47.5554 1004.78 -48.9059 998.341 -46.4957C996.445 -45.7792 994.792 -44.794 993.404 -43.689L993.981 -54.9614C996.835 -53.6575 1000.97 -53.6325 1005.13 -55.1819C1011.56 -57.6154 1015.55 -62.9036 1013.99 -67.0098C1012.45 -71.1203 1005.96 -72.4707 999.524 -70.0606C993.451 -67.7669 989.639 -62.9469 990.501 -58.9756L989.43 -38.3073C989.148 -37.3605 989.103 -36.4339 989.297 -35.5275L987.943 -9.12742C987.943 -9.12742 987.96 -9.03402 987.969 -8.98732L986.76 14.4374C986.71 15.4618 987.496 16.3058 988.497 16.3606Z" fill="#3F240C" fill-opacity="0.04"/>
<path d="M1248.75 4.79184L1230.89 48.5081C1228.56 46.2838 1224.55 44.8579 1220 44.958C1212.95 45.1146 1207.3 48.9 1207.42 53.3975C1207.53 57.8951 1213.33 61.4032 1220.39 61.2467C1227.03 61.0942 1232.34 57.7332 1232.87 53.5747L1250.96 9.35815L1291.69 17.9919L1275.2 58.3105C1272.88 56.0862 1268.86 54.6604 1264.32 54.7605C1257.26 54.917 1251.62 58.7024 1251.73 63.2C1251.85 67.6975 1257.65 71.2057 1264.7 71.0492C1271.34 70.8967 1276.66 67.5357 1277.19 63.3772L1295.44 18.7667L1298.2 12.0416L1249.99 1.83048L1248.79 4.75975L1248.75 4.79184Z" fill="#3F240C" fill-opacity="0.04"/>
<path d="M1089.01 65.0652C1092.93 72.8403 1097.6 80.667 1096.45 88.6381C1095.27 96.7624 1084.83 100.039 1083.74 98.8418C1082.74 97.748 1083.77 96.9506 1083.97 96.8179C1083.97 96.8179 1083.97 96.8179 1083.99 96.8136C1087.43 94.407 1088.96 89.9165 1087.44 85.8017C1085.64 80.919 1080.19 78.4312 1075.31 80.2369C1071.56 81.6378 1069.24 85.1397 1069.17 88.8988C1068.67 95.2754 1074.82 110.198 1094.13 100.382C1109.93 92.3565 1098.25 69.6471 1093.52 61.6846C1108.99 47.4161 1097.11 23.6559 1083.59 21.6842C1078.95 21.005 1075.05 21.8776 1071.89 23.3607C1069.69 19.4233 1067.46 15.5137 1065.34 11.8011C1065.38 11.7457 1065.41 11.6903 1065.45 11.6348C1079.8 -12.8655 1070.89 -36.117 1059.86 -46.0194C1048.83 -55.9217 1042.88 -35.7679 1045.97 -20.3717C1047.52 -12.5897 1051.68 -3.3858 1055.41 3.79522C1048.9 16.3195 1041.24 31.3076 1043.46 44.6193C1047.09 66.2938 1069.42 77.4218 1089.04 65.0842L1089.01 65.0652ZM1084.51 34.3689C1099.04 38.809 1094.43 50.6167 1090.54 56.7077C1088.39 52.8083 1083.55 44.1175 1077.98 34.1873C1080 33.6635 1082.23 33.6594 1084.53 34.3645L1084.51 34.3689ZM1055.29 -35.5249C1059.47 -36.0631 1063.47 -29.0278 1063.51 -16.7597C1063.52 -12.9437 1061.24 -7.7081 1058.16 -1.64866C1050.49 -19.4285 1051.64 -35.0359 1055.29 -35.5249ZM1062.61 16.5883C1063.37 17.9679 1065.28 21.4308 1067.75 25.8981C1063.93 28.8589 1062.02 32.1889 1062.02 32.1889C1054.83 51.2926 1072.09 60.6598 1075.59 59.9824C1079.09 59.3284 1077.96 56.2296 1077.96 56.2296C1064.43 54.4535 1066.14 41.835 1073.5 36.3523C1078.26 45.0328 1083.44 54.506 1086.53 60.3323C1079.4 64.8301 1065.87 67.5967 1058.74 60.2278C1050.43 51.6555 1050.93 38.1736 1062.58 16.5927L1062.61 16.5883Z" fill="#3F240C" fill-opacity="0.04"/>
<path d="M1172.17 -2.82906C1171 -2.27107 1170.49 -0.847191 1171.05 0.352762C1171.61 1.52936 1173.03 2.03683 1174.23 1.47448L1185.02 -3.6568L1187.59 10.1207C1187.83 11.405 1189.08 12.2597 1190.36 12.0199C1191.65 11.7801 1192.5 10.5331 1192.26 9.24872L1189.46 -5.7664L1198.65 -10.14L1199.24 -6.94087C1199.48 -5.65653 1200.73 -4.8019 1202.02 -5.04169C1203.3 -5.28148 1204.15 -6.5285 1203.92 -7.81284L1203.08 -12.273L1213.49 -17.2134C1214.67 -17.7714 1215.18 -19.1952 1214.62 -20.3952C1214.06 -21.5718 1212.63 -22.0793 1211.43 -21.5169L1202.16 -17.1024L1199.84 -29.5022L1210.25 -34.4426C1211.43 -35.0006 1211.94 -36.4244 1211.37 -37.6244C1210.82 -38.801 1209.39 -39.3318 1208.19 -38.7461L1198.92 -34.3317L1195.89 -50.5611C1195.65 -51.8454 1194.4 -52.7 1193.11 -52.4602C1191.83 -52.2205 1190.98 -50.9734 1191.22 -49.6891L1194.48 -32.222L1185.29 -27.8484L1184.23 -33.5228C1183.99 -34.8072 1182.74 -35.6618 1181.46 -35.422C1180.17 -35.1822 1179.32 -33.9352 1179.56 -32.6509L1180.85 -25.7388L1168.91 -20.0772C1167.73 -19.5192 1167.22 -18.0954 1167.78 -16.8954C1168.34 -15.7188 1169.77 -15.2114 1170.97 -15.7737L1181.75 -20.905L1184.07 -8.50522L1172.12 -2.84369L1172.17 -2.82906ZM1186.26 -23.0276L1195.45 -27.4013L1197.76 -15.0016L1188.58 -10.6279L1186.26 -23.0276Z" fill="#3F240C" fill-opacity="0.04"/>
<path d="M875.896 93.6898C875.764 98.1609 881.376 101.946 888.395 102.134C895.097 102.308 900.668 99.1417 901.267 94.9701L913.171 69.5486L953.234 80.1445L943.026 101.963C940.828 99.6425 936.926 98.027 932.408 97.9038C925.389 97.716 919.586 101.192 919.482 105.682C919.374 110.149 924.962 113.938 931.981 114.126C938.684 114.301 944.255 111.134 944.853 106.962L956.896 81.2491L1000.32 92.7407L990.108 114.559C987.911 112.239 983.985 110.627 979.467 110.504C972.448 110.317 966.645 113.792 966.541 118.283C966.409 122.754 972.022 126.539 979.041 126.727C985.743 126.901 991.314 123.734 991.912 119.563L1004.01 93.7431L1007.06 87.2035L1008.05 85.1102L1008.57 84.022L1013.44 73.6153L1015.26 69.7482L968.176 57.2732L968.228 57.1667L920.819 44.6316L917.739 51.1755L916.685 53.4263L913.629 59.9659L912.642 62.0592L909.563 68.6031L899.522 90.0277C897.325 87.7072 893.399 86.0961 888.882 85.9729C881.863 85.7851 876.083 89.2566 875.951 93.7277L875.896 93.6898ZM1003.32 86.1631L959.897 74.6715L959.95 74.565L960.884 72.5782L1004.3 84.0698L1003.32 86.1631ZM965.017 63.7834L1008.44 75.275L1007.38 77.5259L963.963 66.0343L965.017 63.7834ZM921.32 52.1019L961.383 62.6979L960.329 64.9487L920.266 54.3528L921.32 52.1019ZM917.209 60.8923L957.249 71.4926L956.263 73.5859L916.223 62.9856L917.209 60.8923Z" fill="#3F240C" fill-opacity="0.04"/>
<path d="M914.462 -18.1482C904.398 -16.2691 897.493 -7.94782 899.059 0.435434C900.624 8.81869 910.065 14.0881 920.13 12.209C930.195 10.3299 937.099 2.00861 935.534 -6.37465C933.969 -14.7579 924.527 -20.0273 914.462 -18.1482ZM919.546 9.07987C915.716 9.79488 911.603 4.9805 910.361 -1.67473C909.118 -8.32996 911.217 -14.304 915.046 -15.0191C918.876 -15.7341 922.989 -10.9197 924.232 -4.26448C925.474 2.39075 923.376 8.36485 919.546 9.07987Z" fill="#3F240C" fill-opacity="0.04"/>
<path d="M794.497 419.948C798.062 414.062 797.914 407.444 794.179 405.169C790.42 402.899 784.489 405.819 780.924 411.704C777.559 417.238 777.522 423.383 780.666 425.986L809.407 466.8C809.997 467.633 811.146 467.829 811.955 467.243C812.787 466.653 812.983 465.504 812.397 464.695L785.862 427.021C788.914 426.283 792.189 423.762 794.497 419.948Z" fill="#3F240C" fill-opacity="0.04"/>
<path d="M870.706 132.164C869.697 132.328 869.024 133.251 869.188 134.26L876.311 179.787C873.259 179.1 869.181 179.91 865.446 182.299C859.635 185.994 856.842 192.001 859.199 195.693C861.556 199.385 868.181 199.405 873.991 195.71C879.455 192.225 882.199 186.735 880.537 183.009L872.829 133.701C872.665 132.692 871.742 132.019 870.729 132.159L870.706 132.164Z" fill="#3F240C" fill-opacity="0.04"/>
<path d="M636.964 299.847C630.891 302.14 627.079 306.96 627.941 310.932L626.87 331.6C626.588 332.547 626.543 333.473 626.737 334.38L625.383 360.78C625.383 360.78 625.4 360.873 625.409 360.92L624.2 384.345C624.15 385.369 624.935 386.213 625.936 386.268C626.937 386.323 627.805 385.532 627.86 384.531L630.239 338.511C633.092 339.815 637.229 339.84 641.386 338.29C647.819 335.857 651.81 330.569 650.246 326.462C648.705 322.352 642.218 321.001 635.781 323.412C633.885 324.128 632.232 325.113 630.844 326.218L631.421 314.946C634.275 316.25 638.412 316.275 642.569 314.725C649.002 312.292 652.993 307.004 651.428 302.898C649.888 298.787 643.401 297.437 636.964 299.847Z" fill="#3F240C" fill-opacity="0.04"/>
<path d="M755.873 295.263C754.869 295.45 754.223 296.392 754.41 297.397L762.735 342.241C759.007 340.786 753.778 341.641 749.017 344.874C742.385 349.35 739.616 356.392 742.661 360.923C744.197 363.197 746.936 364.402 750.375 364.316C751.121 364.297 751.9 364.2 752.671 364.056C755.123 363.598 757.633 362.55 759.927 360.986C765.356 357.314 768.211 351.899 767.358 347.588C767.374 347.416 767.39 347.244 767.36 347.08L758.03 296.721C757.842 295.717 756.877 295.075 755.896 295.258L755.873 295.263ZM757.905 358.052C755.438 359.721 752.695 360.693 750.244 360.764C748.994 360.804 746.733 360.598 745.603 358.948C743.733 356.179 746.193 351.105 751.001 347.863C752.951 346.532 755.04 345.683 756.955 345.325C759.757 344.802 762.201 345.337 763.303 346.968C765.173 349.736 762.69 354.815 757.905 358.052Z" fill="#3F240C" fill-opacity="0.04"/>
<path d="M857.419 414.87C850.368 415.026 844.719 418.812 844.834 423.309C844.948 427.807 850.751 431.315 857.802 431.158C864.443 431.006 869.76 427.645 870.289 423.486L888.374 379.27L929.11 387.904L912.617 428.222C910.293 425.998 906.281 424.572 901.732 424.672C894.681 424.829 889.032 428.614 889.147 433.112C889.262 437.609 895.064 441.117 902.115 440.961C908.757 440.808 914.074 437.447 914.602 433.289L932.856 388.678L935.612 381.953L887.404 371.742L886.211 374.671L868.346 418.388C866.022 416.163 862.01 414.737 857.461 414.838L857.419 414.87Z" fill="#3F240C" fill-opacity="0.04"/>
<path d="M866.155 322.134C868.416 326.086 875.27 326.425 881.47 322.875C887.299 319.54 890.418 313.979 888.888 310.06L884.759 271.634C888.753 271.541 898.022 271.744 901.815 275.361L903.193 259.444C903.193 259.444 891.807 256.447 883.344 258.487C883.16 257.506 882.284 256.824 881.29 256.937C880.249 257.058 879.483 257.999 879.604 259.04L884.726 306.536C881.593 305.671 877.34 306.32 873.341 308.589C867.141 312.139 863.946 318.197 866.206 322.149L866.155 322.134Z" fill="#3F240C" fill-opacity="0.04"/>
<path d="M720.985 391.6C716.339 390.921 712.442 391.794 709.288 393.277C707.078 389.339 704.85 385.43 702.731 381.717C702.769 381.662 702.807 381.606 702.845 381.551C717.193 357.051 708.284 333.799 697.252 323.897C686.24 313.967 680.269 334.148 683.361 349.544C684.91 357.326 689.07 366.53 692.803 373.711C686.296 386.236 678.631 401.224 680.851 414.535C684.486 436.21 706.815 447.338 726.43 435C730.346 442.775 735.022 450.602 733.876 458.573C732.686 466.698 722.254 469.974 721.137 468.781C720.136 467.687 721.171 466.89 721.363 466.757C721.363 466.757 721.364 466.757 721.387 466.753C724.828 464.346 726.358 459.856 724.841 455.741C723.035 450.858 717.592 448.371 712.71 450.176C708.96 451.577 706.641 455.079 706.57 458.838C706.069 465.215 712.214 480.138 731.526 470.321C747.33 462.296 735.647 439.587 730.922 431.624C746.383 417.356 734.504 393.595 720.989 391.624L720.985 391.6ZM692.734 334.382C696.911 333.844 700.906 340.88 700.95 353.148C700.961 356.964 698.676 362.199 695.603 368.259C687.933 350.479 689.079 334.871 692.734 334.382ZM696.184 430.135C687.866 421.563 688.369 408.081 700.024 386.5C700.789 387.88 702.692 391.343 705.169 395.81C701.348 398.771 699.432 402.101 699.432 402.101C692.245 421.204 709.508 430.571 713.007 429.894C716.51 429.24 715.375 426.141 715.375 426.141C701.849 424.365 703.553 411.747 710.915 406.264C715.701 414.94 720.853 424.418 723.947 430.244C716.812 434.742 703.288 437.508 696.161 430.139L696.184 430.135ZM727.982 426.615C725.828 422.716 720.991 414.025 715.416 404.095C717.444 403.571 719.667 403.567 721.973 404.272C736.504 408.712 731.894 420.52 728.005 426.611L727.982 426.615Z" fill="#3F240C" fill-opacity="0.04"/>
<path d="M809.614 367.078C808.437 367.636 807.93 369.06 808.492 370.26C809.05 371.437 810.474 371.944 811.674 371.382L822.46 366.251L825.033 380.028C825.272 381.312 826.519 382.167 827.804 381.927C829.088 381.687 829.943 380.44 829.703 379.156L826.899 364.141L836.087 359.767L836.685 362.966C836.925 364.251 838.172 365.105 839.456 364.866C840.74 364.626 841.595 363.379 841.355 362.095L840.522 357.634L850.934 352.694C852.11 352.136 852.618 350.712 852.055 349.512C851.497 348.336 850.074 347.828 848.874 348.39L839.596 352.805L837.281 340.405L847.693 335.465C848.869 334.907 849.377 333.483 848.814 332.283C848.256 331.106 846.833 330.599 845.633 331.161L836.356 335.576L833.326 319.346C833.086 318.062 831.839 317.207 830.554 317.447C829.27 317.687 828.415 318.934 828.655 320.218L831.916 337.685L822.728 342.059L821.669 336.385C821.429 335.1 820.182 334.246 818.898 334.485C817.613 334.725 816.759 335.972 816.999 337.257L818.289 344.169L806.345 349.83C805.168 350.388 804.661 351.812 805.223 353.012C805.781 354.189 807.205 354.696 808.405 354.134L819.192 349.002L821.507 361.402L809.562 367.064L809.614 367.078ZM823.678 346.884L832.866 342.51L835.181 354.91L825.993 359.284L823.678 346.884Z" fill="#3F240C" fill-opacity="0.04"/>
<path d="M507.79 255.019C506.613 255.577 506.106 257.001 506.668 258.201C507.226 259.378 508.65 259.885 509.85 259.323L520.636 254.192L523.209 267.969C523.449 269.253 524.696 270.108 525.98 269.868C527.264 269.629 528.119 268.381 527.879 267.097L525.076 252.082L534.264 247.708L534.861 250.908C535.101 252.192 536.348 253.046 537.632 252.807C538.917 252.567 539.771 251.32 539.531 250.036L538.699 245.575L549.11 240.635C550.287 240.077 550.794 238.653 550.232 237.453C549.674 236.277 548.25 235.769 547.05 236.331L537.768 240.723L535.453 228.323L545.865 223.382C547.041 222.824 547.549 221.401 546.986 220.201C546.428 219.024 545.005 218.517 543.805 219.079L534.528 223.493L531.497 207.264C531.258 205.98 530.011 205.125 528.726 205.365C527.442 205.605 526.587 206.852 526.827 208.136L530.088 225.603L520.9 229.977L519.841 224.302C519.601 223.018 518.354 222.163 517.07 222.403C515.785 222.643 514.931 223.89 515.171 225.174L516.461 232.086L504.517 237.748C503.34 238.306 502.833 239.73 503.395 240.93C503.953 242.106 505.377 242.614 506.577 242.051L517.364 236.92L519.679 249.32L507.734 254.981L507.79 255.019ZM521.858 234.848L531.046 230.475L533.361 242.875L524.173 247.248L521.858 234.848Z" fill="#3F240C" fill-opacity="0.04"/>
<path d="M771.043 216.019C765.68 219.654 763.093 225.212 764.844 228.896L773.934 277.971C774.043 278.555 774.443 279.012 774.948 279.256L774.971 279.252C775.314 279.405 775.671 279.508 776.068 279.434C776.068 279.434 776.092 279.429 776.115 279.425L835.004 287.303L834.99 287.233C835.241 287.283 835.484 287.286 835.741 287.238C836.745 287.051 837.386 286.085 837.203 285.105L828.792 239.794C831.877 240.402 835.906 239.456 839.576 236.983C845.282 233.114 847.918 227.04 845.453 223.416C842.988 219.792 836.375 219.964 830.669 223.832C825.306 227.467 822.719 233.025 824.47 236.71L832.459 279.756L776.57 272.283L769.1 232.016C772.186 232.624 776.214 231.679 779.885 229.205C785.591 225.337 788.226 219.263 785.762 215.639C783.297 212.015 776.683 212.186 770.977 216.055L771.043 216.019Z" fill="#3F240C" fill-opacity="0.04"/>
<path d="M526.243 455.847C519.224 455.659 513.444 459.13 513.312 463.601C513.18 468.073 518.793 471.858 525.811 472.046C532.514 472.22 538.085 469.053 538.683 464.882L550.587 439.46L590.651 450.056L580.442 471.875C578.245 469.554 574.343 467.939 569.825 467.816C562.806 467.628 557.003 471.104 556.899 475.594C556.79 480.06 562.379 483.85 569.398 484.038C576.1 484.212 581.671 481.046 582.27 476.874L594.313 451.161L637.733 462.652L627.525 484.471C625.327 482.15 621.402 480.539 616.884 480.416C609.865 480.228 604.062 483.704 603.958 488.194C603.826 492.665 609.438 496.451 616.457 496.638C623.159 496.813 628.73 493.646 629.329 489.475L641.424 463.655L644.481 457.115L645.467 455.022L645.989 453.934L650.861 443.527L652.676 439.66L605.592 427.185L605.645 427.078L558.235 414.543L555.156 421.087L554.102 423.338L551.046 429.878L550.059 431.971L546.979 438.515L536.939 459.939C534.742 457.619 530.816 456.008 526.298 455.885L526.243 455.847ZM640.757 456.07L597.337 444.579L597.389 444.472L598.323 442.486L641.744 453.977L640.757 456.07ZM602.434 433.695L645.854 445.187L644.8 447.438L601.38 435.946L602.434 433.695ZM558.759 422.009L598.823 432.605L597.769 434.856L557.706 424.26L558.759 422.009ZM554.626 430.804L594.666 441.404L593.679 443.498L553.639 432.897L554.626 430.804Z" fill="#3F240C" fill-opacity="0.04"/>
<path d="M680.866 168.695L675.907 163.362L672.033 159.18L632.68 211.669L639.27 218.751L643.93 223.777L648.103 228.266L650.194 230.534L656.785 237.617L678.32 260.807C674.335 262.372 670.375 266.398 667.955 271.949C664.197 280.553 665.601 289.498 671.096 291.879C676.592 294.261 684.087 289.236 687.841 280.609C691.379 272.505 690.288 264.203 685.578 261.24L659.865 233.538L693.104 189.198L715.034 212.822C711.049 214.388 707.089 218.414 704.669 223.964C700.911 232.568 702.311 241.49 707.81 243.895C713.31 246.299 720.801 241.252 724.556 232.624C728.093 224.521 727.002 216.218 722.293 213.255L692.526 181.187L689.59 178.013L687.499 175.746L680.908 168.663L680.866 168.695ZM675.566 170.337L677.832 172.766L644.594 217.105L642.328 214.676L675.566 170.337ZM686.49 182.12L653.252 226.46L651.161 224.192L684.399 179.852L686.49 182.12Z" fill="#3F240C" fill-opacity="0.04"/>
<path d="M741.064 149.675C735.366 150.738 731.629 156.221 732.689 161.895C733.748 167.57 739.235 171.33 744.909 170.271C750.584 169.211 754.344 163.724 753.285 158.05C752.225 152.376 746.738 148.615 741.064 149.675Z" fill="#3F240C" fill-opacity="0.04"/>
<path d="M588.025 306.688C586.961 300.99 581.478 297.253 575.804 298.313C570.13 299.372 566.369 304.859 567.429 310.534C568.488 316.208 573.975 319.968 579.649 318.909C585.324 317.85 589.084 312.363 588.025 306.688Z" fill="#3F240C" fill-opacity="0.04"/>
<path d="M551.879 351.763C541.814 353.643 534.91 361.964 536.475 370.347C538.04 378.73 547.482 384 557.547 382.121C567.611 380.242 574.516 371.92 572.95 363.537C571.385 355.154 561.943 349.884 551.879 351.763ZM556.962 378.992C553.133 379.707 549.02 374.892 547.777 368.237C546.535 361.582 548.633 355.608 552.463 354.893C556.293 354.178 560.406 358.992 561.648 365.647C562.891 372.302 560.792 378.277 556.962 378.992Z" fill="#3F240C" fill-opacity="0.04"/>
<path d="M717.922 90.0529L746.663 130.867C747.253 131.7 748.402 131.896 749.211 131.31C750.043 130.72 750.239 129.571 749.653 128.763L723.118 91.0885C726.17 90.3496 729.445 87.829 731.753 84.0148C735.318 78.1294 735.17 71.5115 731.435 69.2366C727.676 66.966 721.745 69.8858 718.18 75.7712C714.815 81.3051 714.778 87.45 717.922 90.0529Z" fill="#3F240C" fill-opacity="0.04"/>
<path d="M563.192 50.3351C564.193 50.3899 565.061 49.5996 565.116 48.5986L567.495 2.57796C570.348 3.88182 574.485 3.9069 578.642 2.35743C585.075 -0.0760611 589.066 -5.3643 587.502 -9.47043C585.961 -13.5809 579.474 -14.9314 573.037 -12.5212C571.141 -11.8047 569.488 -10.8195 568.099 -9.71446L568.677 -20.9869C571.531 -19.683 575.668 -19.6579 579.825 -21.2074C586.258 -23.6409 590.248 -28.9291 588.684 -33.0353C587.144 -37.1458 580.657 -38.4962 574.219 -36.0861C568.147 -33.7924 564.335 -28.9724 565.197 -25.0011L564.126 -4.33281C563.844 -3.38596 563.799 -2.45936 563.993 -1.55301L562.638 24.8471C562.638 24.8471 562.656 24.9405 562.665 24.9872L561.456 48.4119C561.405 49.4363 562.191 50.2804 563.192 50.3351Z" fill="#3F240C" fill-opacity="0.04"/>
<path d="M686.273 8.94124C679.641 13.4176 676.872 20.4593 679.917 24.9898C681.453 27.2645 684.192 28.4691 687.631 28.3827C688.377 28.3643 689.156 28.2671 689.927 28.1232C692.379 27.6655 694.889 26.6167 697.183 25.0527C702.612 21.381 705.467 15.9664 704.614 11.655C704.63 11.4828 704.646 11.3106 704.616 11.1472L695.286 -39.2121C695.098 -40.2162 694.133 -40.8576 693.152 -40.6745C692.148 -40.487 691.502 -39.5448 691.69 -38.5407L700.014 6.30324C696.287 4.8484 691.057 5.70389 686.296 8.93689L686.273 8.94124ZM700.582 11.0303C702.452 13.7985 699.969 18.8777 695.185 22.1151C692.717 23.7841 689.975 24.7553 687.523 24.8264C686.274 24.8663 684.012 24.6602 682.882 23.0104C681.012 20.2422 683.472 15.1673 688.28 11.9255C690.235 10.6181 692.319 9.74558 694.234 9.38807C697.037 8.86489 699.48 9.39941 700.582 11.0303Z" fill="#3F240C" fill-opacity="0.04"/>
<path d="M823.448 38.7663L805.583 82.4825C803.259 80.2582 799.247 78.8323 794.698 78.9324C787.647 79.089 781.998 82.8744 782.113 87.372C782.228 91.8695 788.03 95.3777 795.081 95.2211C801.722 95.0686 807.04 91.7076 807.568 87.5491L825.653 43.3326L866.39 51.9663L849.897 92.2849C847.572 90.0607 843.56 88.6348 839.012 88.7349C831.96 88.8915 826.312 92.6768 826.426 97.1744C826.541 101.672 832.343 105.18 839.395 105.024C846.036 104.871 851.353 101.51 851.882 97.3516L870.135 52.7411L872.891 46.016L824.683 35.8049L823.49 38.7342L823.448 38.7663Z" fill="#3F240C" fill-opacity="0.04"/>
<path d="M663.705 99.0397C667.621 106.815 672.296 114.642 671.151 122.613C669.961 130.737 659.529 134.014 658.412 132.821C657.41 131.727 658.446 130.929 658.638 130.797C658.638 130.797 658.638 130.797 658.662 130.792C662.103 128.386 663.633 123.895 662.116 119.781C660.31 114.898 654.867 112.41 649.985 114.216C646.235 115.617 643.916 119.119 643.845 122.878C643.344 129.254 649.489 144.177 668.801 134.361C684.605 126.335 672.922 103.626 668.197 95.6635C683.658 81.395 671.779 57.6347 658.264 55.6631C653.618 54.9839 649.722 55.8564 646.567 57.3396C644.358 53.4022 642.129 49.4926 640.011 45.78C640.049 45.7246 640.086 45.6692 640.124 45.6137C654.472 21.1134 645.563 -2.13816 634.532 -12.0405C623.519 -21.9705 617.548 -1.78905 620.64 13.6072C622.19 21.3892 626.349 30.5931 630.082 37.7741C623.576 50.2984 615.91 65.2865 618.13 78.5982C621.766 100.273 644.094 111.401 663.709 99.0631L663.705 99.0397ZM659.206 68.3434C673.737 72.7835 669.127 84.5913 665.237 90.6822C663.084 86.7828 658.247 78.0921 652.671 68.1618C654.7 67.638 656.923 67.6339 659.229 68.339L659.206 68.3434ZM630.013 -1.55475C634.19 -2.09292 638.186 4.94238 638.229 17.2105C638.241 21.0265 635.956 26.2621 632.882 32.3215C625.213 14.5417 626.359 -1.06578 630.013 -1.55475ZM637.303 50.5629C638.068 51.9425 639.971 55.4053 642.448 59.8726C638.627 62.8334 636.711 66.1635 636.711 66.1635C629.524 85.2671 646.788 94.6343 650.286 93.957C653.789 93.303 652.655 90.2041 652.655 90.2041C639.128 88.428 640.832 75.8095 648.194 70.3268C652.98 79.003 658.132 88.4805 661.226 94.3068C654.091 98.8047 640.567 101.571 633.44 94.2023C625.122 85.63 625.625 72.1482 637.279 50.5672L637.303 50.5629Z" fill="#3F240C" fill-opacity="0.04"/>
<path d="M746.889 31.1177C745.712 31.6757 745.204 33.0995 745.767 34.2995C746.325 35.4761 747.749 35.9836 748.949 35.4212L759.735 30.29L762.307 44.0674C762.547 45.3518 763.794 46.2064 765.079 45.9666C766.363 45.7268 767.218 44.4798 766.978 43.1955L764.174 28.1803L773.362 23.8067L773.96 27.0059C774.199 28.2902 775.446 29.1449 776.731 28.9051C778.015 28.6653 778.87 27.4183 778.63 26.1339L777.797 21.6737L788.209 16.7334C789.385 16.1754 789.893 14.7515 789.33 13.5516C788.772 12.375 787.348 11.8675 786.149 12.4298L776.871 16.8443L774.556 4.44456L784.968 -0.495809C786.144 -1.0538 786.652 -2.47768 786.089 -3.67763C785.531 -4.85423 784.108 -5.36169 782.908 -4.79933L773.631 -0.384882L770.6 -16.6143C770.361 -17.8986 769.114 -18.7533 767.829 -18.5135C766.545 -18.2737 765.69 -17.0267 765.93 -15.7423L769.191 1.72472L760.003 6.0984L758.944 0.423939C758.704 -0.860404 757.457 -1.71504 756.173 -1.47524C754.888 -1.23545 754.034 0.011566 754.273 1.29591L755.564 8.208L743.62 13.8695C742.443 14.4275 741.936 15.8514 742.498 17.0513C743.056 18.2279 744.48 18.7354 745.68 18.173L756.466 13.0418L758.782 25.4415L746.837 31.1031L746.889 31.1177ZM760.957 10.9468L770.145 6.57316L772.46 18.9729L763.272 23.3465L760.957 10.9468Z" fill="#3F240C" fill-opacity="0.04"/>
<path d="M450.591 127.664C450.459 132.135 456.072 135.921 463.091 136.108C469.793 136.283 475.364 133.116 475.963 128.945L487.866 103.523L527.93 114.119L517.722 135.937C515.524 133.617 511.622 132.001 507.104 131.878C500.085 131.691 494.282 135.166 494.178 139.657C494.069 144.123 499.658 147.913 506.677 148.101C513.379 148.275 518.95 145.108 519.549 140.937L531.592 115.224L575.012 126.715L564.804 148.534C562.607 146.213 558.681 144.602 554.163 144.479C547.144 144.291 541.341 147.767 541.237 152.257C541.105 156.728 546.717 160.513 553.736 160.701C560.438 160.876 566.01 157.709 566.608 153.537L578.703 127.718L581.76 121.178L582.746 119.085L583.268 117.997L588.14 107.59L589.955 103.723L542.871 91.2476L542.924 91.1412L495.515 78.606L492.435 85.15L491.381 87.4008L488.325 93.9404L487.338 96.0337L484.258 102.578L474.218 124.002C472.021 121.682 468.095 120.071 463.577 119.947C456.558 119.76 450.778 123.231 450.647 127.702L450.591 127.664ZM578.032 120.11L534.612 108.618L534.664 108.512L535.598 106.525L579.019 118.017L578.032 120.11ZM539.709 97.7346L583.129 109.226L582.075 111.477L538.655 99.9854L539.709 97.7346ZM496.034 86.0487L536.098 96.6447L535.044 98.8955L494.98 88.2996L496.034 86.0487ZM491.905 94.8668L531.945 105.467L530.958 107.56L490.918 96.9601L491.905 94.8668Z" fill="#3F240C" fill-opacity="0.04"/>
<path d="M494.826 46.1834C504.891 44.3043 511.795 35.983 510.23 27.5997C508.665 19.2165 499.223 13.9471 489.158 15.8262C479.094 17.7053 472.189 26.0266 473.754 34.4098C475.32 42.7931 484.761 48.0625 494.826 46.1834ZM489.742 18.9553C493.572 18.2403 497.685 23.0547 498.928 29.7099C500.17 36.3651 498.071 42.3392 494.242 43.0543C490.412 43.7693 486.299 38.9549 485.057 32.2997C483.814 25.6444 485.913 19.6703 489.742 18.9553Z" fill="#3F240C" fill-opacity="0.04"/>
<path d="M473.498 251.78C472.49 251.944 471.816 252.867 471.98 253.876L479.103 299.403C476.051 298.716 471.973 299.526 468.238 301.915C462.427 305.61 459.634 311.617 461.991 315.309C464.348 319.001 470.973 319.021 476.784 315.326C482.247 311.841 484.992 306.351 483.329 302.625L475.622 253.317C475.457 252.308 474.534 251.635 473.521 251.775L473.498 251.78Z" fill="#3F240C" fill-opacity="0.04"/>
<path d="M239.752 419.439C233.679 421.733 229.867 426.553 230.729 430.524L229.658 451.193C229.376 452.139 229.331 453.066 229.525 453.972L228.171 480.372C228.171 480.372 228.188 480.466 228.197 480.513L226.988 503.937C226.938 504.962 227.724 505.806 228.725 505.86C229.726 505.915 230.593 505.125 230.648 504.124L233.027 458.103C235.88 459.407 240.017 459.432 244.174 457.883C250.607 455.449 254.598 450.161 253.034 446.055C251.493 441.944 245.006 440.594 238.569 443.004C236.673 443.721 235.02 444.706 233.608 445.815L234.186 434.543C237.039 435.847 241.176 435.872 245.334 434.322C251.766 431.889 255.757 426.601 254.193 422.494C252.652 418.384 246.166 417.033 239.728 419.444L239.752 419.439Z" fill="#3F240C" fill-opacity="0.04"/>
<path d="M358.665 414.879C357.661 415.066 357.015 416.008 357.203 417.012L365.527 461.856C361.8 460.401 356.571 461.257 351.809 464.49C345.178 468.966 342.409 476.008 345.454 480.538C346.99 482.813 349.728 484.018 353.168 483.931C353.913 483.913 354.693 483.816 355.463 483.672C357.915 483.214 360.426 482.165 362.72 480.601C368.148 476.93 371.004 471.515 370.15 467.204C370.167 467.031 370.183 466.859 370.152 466.696L360.822 416.337C360.635 415.332 359.669 414.691 358.689 414.874L358.665 414.879ZM360.698 477.668C358.23 479.337 355.488 480.308 353.036 480.379C351.787 480.419 349.525 480.213 348.396 478.563C346.525 475.795 348.985 470.72 353.793 467.479C355.744 466.148 357.833 465.299 359.747 464.941C362.55 464.418 364.994 464.952 366.096 466.583C367.966 469.351 365.506 474.426 360.698 477.668Z" fill="#3F240C" fill-opacity="0.04"/>
<path d="M468.92 441.731C471.18 445.683 478.034 446.022 484.235 442.472C490.064 439.136 493.182 433.576 491.653 429.657L487.524 391.231C491.518 391.138 500.787 391.34 504.58 394.958L505.958 379.041C505.958 379.041 494.596 376.04 486.108 378.083C485.925 377.103 485.049 376.42 484.055 376.534C483.014 376.655 482.247 377.596 482.369 378.636L487.491 426.132C484.357 425.268 480.105 425.917 476.106 428.186C469.906 431.736 466.711 437.793 468.971 441.745L468.92 441.731Z" fill="#3F240C" fill-opacity="0.04"/>
<path d="M110.559 374.64C109.382 375.198 108.875 376.621 109.437 377.821C109.995 378.998 111.419 379.505 112.619 378.943L123.406 373.812L125.978 387.589C126.218 388.874 127.465 389.728 128.749 389.488C130.033 389.249 130.888 388.002 130.648 386.717L127.845 371.702L137.033 367.328L137.63 370.528C137.87 371.812 139.117 372.667 140.401 372.427C141.686 372.187 142.54 370.94 142.301 369.656L141.468 365.196L151.879 360.255C153.056 359.697 153.563 358.273 153.001 357.073C152.443 355.897 151.019 355.389 149.819 355.952L140.542 360.366L138.227 347.966L148.638 343.026C149.815 342.468 150.322 341.044 149.76 339.844C149.202 338.668 147.778 338.16 146.578 338.722L137.301 343.137L134.271 326.907C134.031 325.623 132.784 324.768 131.5 325.008C130.215 325.248 129.361 326.495 129.601 327.779L132.862 345.247L123.674 349.62L122.614 343.946C122.375 342.661 121.127 341.807 119.843 342.047C118.559 342.286 117.704 343.533 117.944 344.818L119.234 351.73L107.29 357.391C106.114 357.949 105.606 359.373 106.169 360.573C106.727 361.75 108.151 362.257 109.35 361.695L120.137 356.564L122.452 368.963L110.508 374.625L110.559 374.64ZM124.646 354.441L133.834 350.067L136.149 362.467L126.961 366.841L124.646 354.441Z" fill="#3F240C" fill-opacity="0.04"/>
<path d="M373.835 335.634C368.473 339.27 365.886 344.827 367.637 348.512L376.727 397.587C376.836 398.171 377.235 398.628 377.74 398.872L377.763 398.868C378.106 399.021 378.464 399.123 378.861 399.049C378.861 399.049 378.884 399.045 378.907 399.041L437.796 406.919L437.783 406.849C438.034 406.899 438.276 406.902 438.533 406.854C439.537 406.667 440.183 405.725 439.995 404.72L431.584 359.409C434.67 360.017 438.698 359.072 442.369 356.598C448.074 352.73 450.71 346.656 448.245 343.032C445.78 339.408 439.167 339.579 433.461 343.448C428.098 347.083 425.511 352.641 427.262 356.326L435.251 399.371L379.362 391.899L371.893 351.632C374.978 352.24 379.007 351.295 382.677 348.821C388.383 344.953 391.019 338.878 388.554 335.255C386.089 331.631 379.476 331.802 373.77 335.671L373.835 335.634Z" fill="#3F240C" fill-opacity="0.04"/>
<path d="M242.035 338.348L247.453 344.199L250.872 347.887L252.963 350.155L259.554 357.237L281.089 380.427C277.104 381.992 273.144 386.018 270.724 391.569C266.966 400.173 268.37 409.118 273.865 411.499C279.36 413.881 286.856 408.856 290.61 400.229C294.148 392.126 293.057 383.823 288.347 380.86L262.634 353.158L295.873 308.819L317.803 332.442C313.818 334.008 309.858 338.034 307.438 343.585C303.68 352.188 305.08 361.11 310.579 363.515C316.079 365.919 323.57 360.872 327.325 352.245C330.862 344.141 329.771 335.838 325.061 332.875L295.442 300.949L292.359 297.634L290.268 295.366L283.677 288.283L278.718 282.95L274.844 278.768L235.491 331.257L242.082 338.339L242.035 338.348ZM289.278 301.713L256.04 346.052L253.949 343.784L287.187 299.445L289.278 301.713ZM247.358 336.702L245.092 334.273L278.331 289.934L280.597 292.362L247.358 336.702Z" fill="#3F240C" fill-opacity="0.04"/>
<path d="M343.833 269.295C338.135 270.359 334.398 275.841 335.457 281.516C336.517 287.19 342.004 290.95 347.678 289.891C353.353 288.832 357.113 283.345 356.054 277.67C354.994 271.996 349.507 268.235 343.833 269.295Z" fill="#3F240C" fill-opacity="0.04"/>
<path d="M182.414 438.506C188.101 437.444 191.851 431.972 190.789 426.285C189.728 420.598 184.256 416.848 178.569 417.91C172.881 418.971 169.131 424.443 170.193 430.13C171.255 435.818 176.727 439.568 182.414 438.506Z" fill="#3F240C" fill-opacity="0.04"/>
<path d="M320.71 209.645L349.451 250.46C350.041 251.292 351.19 251.489 351.999 250.903C352.831 250.312 353.027 249.164 352.441 248.355L325.906 210.681C328.958 209.942 332.233 207.422 334.541 203.607C338.106 197.722 337.958 191.104 334.223 188.829C330.464 186.559 324.533 189.478 320.968 195.364C317.603 200.898 317.566 207.043 320.71 209.645Z" fill="#3F240C" fill-opacity="0.04"/>
<path d="M165.98 169.928C166.982 169.982 167.849 169.192 167.904 168.191L170.283 122.17C173.136 123.474 177.273 123.499 181.43 121.95C187.863 119.516 191.854 114.228 190.29 110.122C188.749 106.012 182.262 104.661 175.825 107.071C173.929 107.788 172.276 108.773 170.864 109.882L171.442 98.6099C174.295 99.9138 178.432 99.9389 182.589 98.3894C189.022 95.9559 193.013 90.6677 191.449 86.5615C189.908 82.451 183.421 81.1006 176.984 83.5107C170.912 85.8044 167.099 90.6244 167.962 94.5957L166.891 115.264C166.608 116.211 166.564 117.137 166.757 118.044L165.403 144.444C165.403 144.444 165.421 144.537 165.429 144.584L164.221 168.009C164.17 169.033 164.956 169.877 165.957 169.932L165.98 169.928Z" fill="#3F240C" fill-opacity="0.04"/>
<path d="M289.065 128.557C282.434 133.033 279.665 140.075 282.709 144.606C284.246 146.88 286.984 148.085 290.423 147.999C291.169 147.98 291.948 147.883 292.719 147.739C295.171 147.281 297.682 146.233 299.975 144.669C305.404 140.997 308.259 135.582 307.406 131.271C307.422 131.099 307.439 130.926 307.408 130.763L298.078 80.4037C297.891 79.3996 296.925 78.7582 295.944 78.9413C294.94 79.1288 294.299 80.0943 294.482 81.0751L302.806 125.919C299.079 124.464 293.85 125.32 289.089 128.553L289.065 128.557ZM303.37 130.623C305.24 133.391 302.781 138.466 297.973 141.708C295.505 143.377 292.763 144.348 290.311 144.419C289.062 144.459 286.8 144.253 285.67 142.603C283.8 139.835 286.26 134.76 291.068 131.518C293.019 130.187 295.107 129.338 297.022 128.981C299.825 128.457 302.268 128.992 303.37 130.623Z" fill="#3F240C" fill-opacity="0.04"/>
<path d="M426.236 158.359L408.371 202.075C406.047 199.851 402.035 198.425 397.486 198.525C390.435 198.682 384.786 202.467 384.901 206.964C385.016 211.462 390.818 214.97 397.869 214.814C404.511 214.661 409.828 211.3 410.356 207.142L428.442 162.925L469.178 171.559L452.685 211.877C450.36 209.653 446.348 208.227 441.8 208.327C434.749 208.484 429.1 212.269 429.214 216.767C429.329 221.264 435.131 224.773 442.183 224.616C448.824 224.464 454.141 221.103 454.67 216.944L472.923 172.334L475.679 165.609L427.471 155.397L426.278 158.327L426.236 158.359Z" fill="#3F240C" fill-opacity="0.04"/>
<path d="M421.514 106.535C427.343 103.199 430.462 97.6388 428.933 93.7195L424.803 55.2938C428.797 55.2005 438.066 55.4032 441.859 59.0207L443.237 43.1041C443.237 43.1041 431.875 40.1024 423.388 42.1461C423.204 41.1653 422.328 40.4832 421.334 40.5962C420.294 40.718 419.527 41.6587 419.648 42.6992L424.766 90.1717C421.632 89.3069 417.379 89.9559 413.381 92.2249C407.181 95.775 403.986 101.833 406.246 105.785C408.506 109.737 415.36 110.076 421.561 106.526L421.514 106.535Z" fill="#3F240C" fill-opacity="0.04"/>
<path d="M266.493 218.632C270.409 226.407 275.085 234.234 273.939 242.205C272.749 250.329 262.317 253.606 261.224 252.409C260.222 251.315 261.257 250.518 261.45 250.385C261.45 250.385 261.45 250.385 261.473 250.381C264.915 247.974 266.444 243.483 264.904 239.373C263.098 234.49 257.655 232.002 252.773 233.808C249.023 235.209 246.704 238.711 246.633 242.47C246.132 248.847 252.277 263.77 271.589 253.953C287.393 245.928 275.71 223.218 270.985 215.256C286.446 200.987 274.567 177.227 261.052 175.256C256.407 174.576 252.51 175.449 249.355 176.932C247.146 172.995 244.918 169.085 242.799 165.372C242.837 165.317 242.875 165.262 242.913 165.206C257.26 140.706 248.352 117.454 237.32 107.552C226.307 97.6219 220.336 117.803 223.428 133.2C224.978 140.982 229.137 150.186 232.87 157.367C226.364 169.891 218.698 184.879 220.918 198.191C224.554 219.865 246.882 230.993 266.497 218.655L266.493 218.632ZM261.994 187.936C276.525 192.376 271.915 204.184 268.026 210.275C265.872 206.375 261.035 197.685 255.46 187.754C257.488 187.23 259.711 187.226 262.017 187.932L261.994 187.936ZM232.778 118.042C236.955 117.504 240.951 124.539 240.994 136.807C241.005 140.623 238.72 145.859 235.647 151.918C227.978 134.139 229.123 118.531 232.778 118.042ZM240.091 170.155C240.856 171.535 242.759 174.998 245.236 179.465C241.415 182.426 239.5 185.756 239.5 185.756C232.313 204.86 249.576 214.227 253.074 213.549C256.577 212.895 255.443 209.797 255.443 209.797C241.917 208.02 243.62 195.402 250.982 189.919C255.745 198.6 260.921 208.073 264.014 213.899C256.879 218.397 243.355 221.164 236.228 213.795C227.91 205.222 228.413 191.741 240.068 170.16L240.091 170.155Z" fill="#3F240C" fill-opacity="0.04"/>
<path d="M349.658 150.738C348.481 151.296 347.973 152.72 348.536 153.92C349.094 155.096 350.518 155.604 351.718 155.041L362.504 149.91L365.076 163.688C365.316 164.972 366.563 165.827 367.848 165.587C369.132 165.347 369.987 164.1 369.747 162.816L366.943 147.801L376.131 143.427L376.729 146.626C376.968 147.91 378.215 148.765 379.5 148.525C380.784 148.285 381.639 147.038 381.399 145.754L380.566 141.294L390.978 136.354C392.154 135.796 392.662 134.372 392.099 133.172C391.541 131.995 390.117 131.488 388.918 132.05L379.64 136.464L377.325 124.065L387.737 119.124C388.913 118.566 389.421 117.143 388.858 115.943C388.3 114.766 386.872 114.235 385.677 114.821L376.4 119.235L373.369 103.006C373.13 101.722 371.883 100.867 370.598 101.107C369.314 101.347 368.459 102.594 368.699 103.878L371.96 121.345L362.772 125.719L361.713 120.044C361.473 118.76 360.226 117.905 358.942 118.145C357.657 118.385 356.803 119.632 357.042 120.916L358.333 127.828L346.389 133.49C345.212 134.048 344.705 135.472 345.267 136.672C345.825 137.848 347.249 138.356 348.449 137.793L359.235 132.662L361.551 145.062L349.606 150.723L349.658 150.738ZM363.745 130.539L372.933 126.166L375.248 138.565L366.06 142.939L363.745 130.539Z" fill="#3F240C" fill-opacity="0.04"/>
<path d="M47.8338 38.6789C46.6572 39.2369 46.1498 40.6608 46.7121 41.8607C47.2745 43.0607 48.694 43.5448 49.8939 42.9824L60.6804 37.8512L63.2527 51.6287C63.4925 52.913 64.7395 53.7677 66.0239 53.5279C67.3082 53.2881 68.1629 52.0411 67.9231 50.7567L65.1197 35.7416L74.3077 31.3679L74.905 34.5671C75.1448 35.8514 76.3918 36.7061 77.6761 36.4663C78.9605 36.2265 79.8151 34.9795 79.5753 33.6951L78.7426 29.235L89.1539 24.2946C90.3305 23.7366 90.838 22.3127 90.2756 21.1128C89.7176 19.9362 88.2938 19.4287 87.0938 19.9911L77.8168 24.4055L75.5017 12.0058L85.913 7.06541C87.0896 6.50741 87.5971 5.08356 87.0347 3.8836C86.4767 2.707 85.0528 2.19954 83.8529 2.7619L74.5758 7.17635L71.5501 -9.02971C71.3103 -10.3141 70.0633 -11.1687 68.7789 -10.9289C67.4946 -10.6891 66.64 -9.44209 66.8798 -8.15774L70.1409 9.30931L60.9529 13.683L59.8935 8.00852C59.6537 6.72417 58.4067 5.86954 57.1223 6.10933C55.838 6.34912 54.9833 7.59614 55.2231 8.88048L56.5137 15.7926L44.5696 21.4541C43.393 22.0121 42.8855 23.436 43.4478 24.6359C44.0058 25.8125 45.4297 26.32 46.6296 25.7576L57.4161 20.6264L59.7312 33.0261L47.7871 38.6877L47.8338 38.6789ZM61.9255 18.5037L71.1135 14.13L73.4285 26.5298L64.2405 30.9034L61.9255 18.5037Z" fill="#3F240C" fill-opacity="0.04"/>
<path d="M314.029 61.6454C314.138 62.2292 314.538 62.6863 315.043 62.9304L315.066 62.926C315.409 63.0795 315.766 63.1819 316.163 63.1078C316.163 63.1078 316.187 63.1034 316.21 63.0991L375.099 70.9777L375.085 70.9077C375.336 70.9575 375.579 70.9606 375.836 70.9126C376.84 70.7252 377.481 69.7596 377.298 68.7789L368.886 23.4679C371.972 24.0758 376.001 23.1304 379.671 20.6569C385.377 16.7884 388.013 10.714 385.548 7.09018C383.083 3.46637 376.47 3.63785 370.764 7.50636C365.401 11.1417 362.814 16.6995 364.565 20.384L372.554 63.4299L316.665 55.9578L309.195 15.6907C312.281 16.2987 316.309 15.3533 319.98 12.8797C325.686 9.01122 328.321 2.93685 325.857 -0.686959C323.392 -4.31076 316.778 -4.13928 311.072 -0.270764C305.71 3.36453 303.123 8.92236 304.874 12.6069L313.964 61.6819L314.029 61.6454Z" fill="#3F240C" fill-opacity="0.04"/>
<path d="M53.3791 247.257C53.2473 251.728 58.8597 255.513 65.8786 255.701C72.5809 255.875 78.1519 252.709 78.7505 248.537L90.6543 223.116L130.718 233.711L120.509 255.53C118.312 253.209 114.41 251.594 109.892 251.471C102.873 251.283 97.0698 254.759 96.9656 259.249C96.8571 263.716 102.446 267.505 109.465 267.693C116.167 267.868 121.738 264.701 122.337 260.529L134.38 234.816L177.8 246.308L167.592 268.126C165.395 265.806 161.469 264.194 156.951 264.071C149.932 263.884 144.129 267.359 144.025 271.849C143.893 276.321 149.505 280.106 156.524 280.294C163.226 280.468 168.797 277.301 169.396 273.13L181.491 247.31L184.548 240.77L185.534 238.677L186.056 237.589L190.928 227.182L192.743 223.315L145.659 210.84L145.712 210.734L98.3026 198.199L95.2229 204.742L94.169 206.993L91.1126 213.533L90.126 215.626L87.0463 222.17L77.0061 243.595C74.8088 241.274 70.8831 239.663 66.3653 239.54C59.3463 239.352 53.5664 242.824 53.4346 247.295L53.3791 247.257ZM180.801 239.73L137.381 228.238L137.433 228.132L138.367 226.145L181.788 237.637L180.801 239.73ZM142.501 217.35L185.921 228.842L184.867 231.093L141.447 219.601L142.501 217.35ZM98.8032 205.669L138.867 216.265L137.813 218.516L97.7493 207.92L98.8032 205.669ZM94.693 214.459L134.733 225.06L133.746 227.153L93.7064 216.553L94.693 214.459Z" fill="#3F240C" fill-opacity="0.04"/>
<path d="M190.261 14.1896L196.852 21.2721L218.387 44.4619C214.402 46.0276 210.442 50.0536 208.022 55.6042C204.264 64.2081 205.668 73.1531 211.163 75.5344C216.659 77.9158 224.154 72.8915 227.908 64.2642C231.446 56.1607 230.355 47.8581 225.645 44.8951L199.933 17.1929L236.228 -31.2211L229.638 -38.3036L193.342 10.1104L179.307 -5.00677C178.369 -6.01584 176.786 -6.08273 175.777 -5.14519C174.768 -4.20766 174.701 -2.6244 175.639 -1.61533L190.28 14.1619L190.261 14.1896Z" fill="#3F240C" fill-opacity="0.04"/>
<path d="M247.831 27.5584C253.331 29.9632 260.822 24.9155 264.576 16.2882C268.334 7.68436 266.935 -1.23723 261.435 -3.64196C255.935 -6.04669 248.444 -0.999004 244.69 7.62823C240.932 16.2321 242.331 25.1537 247.831 27.5584Z" fill="#3F240C" fill-opacity="0.04"/>
<path d="M119.693 102.569C125.391 101.505 129.128 96.0222 128.069 90.3478C127.009 84.6733 121.522 80.9129 115.848 81.9724C110.173 83.0318 106.413 88.5187 107.472 94.1932C108.532 99.8676 114.019 103.628 119.693 102.569Z" fill="#3F240C" fill-opacity="0.04"/>
<path d="M91.9462 135.419C81.8816 137.298 74.9772 145.619 76.5424 154.002C78.1076 162.386 87.5494 167.655 97.614 165.776C107.679 163.897 114.583 155.576 113.018 147.192C111.453 138.809 102.011 133.54 91.9462 135.419ZM97.0297 162.647C93.2001 163.362 89.0872 158.547 87.8446 151.892C86.6021 145.237 88.7007 139.263 92.5304 138.548C96.36 137.833 100.473 142.647 101.716 149.302C102.958 155.958 100.859 161.932 97.0297 162.647Z" fill="#3F240C" fill-opacity="0.04"/>
<rect width="1258" height="417" fill="url(#paint0_linear_18_2)"/>
</g>
<defs>
<linearGradient id="paint0_linear_18_2" x1="0" y1="208.5" x2="1258" y2="208.5" gradientUnits="userSpaceOnUse">
<stop stop-color="#56684E"/>
<stop offset="1" stop-color="#56684E" stop-opacity="0"/>
</linearGradient>
<clipPath id="clip0_18_2">
<rect width="1356" height="417" fill="white"/>
</clipPath>
</defs>
</svg>
