<svg width="512" height="512" viewBox="0 0 512 512" fill="none" xmlns="http://www.w3.org/2000/svg">
<g clip-path="url(#clip0_13_2)">
<path d="M436.484 331.761C404.007 316.348 382.81 306.291 360.969 302.937C360.985 302.308 361 301.679 361 301.049C361 259.694 327.355 226.049 286 226.049C244.645 226.049 211 259.694 211 301.049C211 306.628 211.63 312.163 212.844 317.557C184.464 322.625 161.329 343.767 153.777 371.391C146.012 366.762 134.681 357.302 113.607 340.444C81.3149 314.611 34.0239 319.865 8.18891 352.153L0.00390625 362.382L9.03791 371.869C60.0879 425.48 117.451 458.712 179.533 470.641C238.634 481.997 291.372 472.371 325.899 464.142C367.414 454.249 401.13 468.837 440.174 485.729C489.95 507.263 494.948 506.066 512.001 511.939V366.236C503.589 362.442 488.999 356.683 436.484 331.761ZM286 256.05C310.813 256.05 331 276.237 331 301.05C331 301.537 330.968 302.021 330.953 302.507C324.769 303.2 318.227 304.34 311.12 305.971C280.422 313.071 260.648 315.36 243.585 316.075C241.89 311.278 241 306.198 241 301.05C241 276.237 261.187 256.05 286 256.05ZM482 470.637C471.846 466.745 461.863 462.427 452.085 458.196C421.013 444.753 389.131 430.959 352.661 430.959C341.858 430.959 330.646 432.17 318.942 434.96C248.446 451.76 144.026 461.868 41.3299 361.873C57.2419 350.995 79.0509 351.221 94.8659 363.873C141.149 400.895 145.134 406.116 176.41 406.051H301V376.051H183.738C189.948 358.721 206.672 346.386 226 346.386C248.933 346.386 273.216 345.531 317.855 335.206C355.543 326.556 369.965 333.401 423.622 358.864C439.311 366.31 458.413 375.375 482 385.835V470.637Z" fill="#312313" fill-opacity="0.5"/>
<path d="M75.516 180.339C129.634 206.022 152.661 217.195 200.88 206.129C242.519 196.499 264.065 195.715 286 195.715C320.21 195.715 349.532 172.498 358.224 140.708C365.913 145.293 376.892 154.454 398.394 171.655C430.686 197.487 477.976 192.235 503.812 159.946L511.997 149.717L502.964 140.23C451.912 86.6191 394.55 53.3871 332.469 41.4581C273.367 30.1021 220.63 39.7281 186.103 47.9571C144.63 57.8411 110.933 43.2381 71.917 26.3301C22.06 4.72306 17.084 5.94806 0 0.0600586V145.864C8.428 149.666 22.892 155.366 75.516 180.339ZM30 41.3661C40.18 45.2711 50.186 49.6071 59.988 53.8551C100.242 71.3011 141.866 89.3411 193.058 77.1391C263.554 60.3381 367.975 50.2321 470.669 150.226C454.757 161.103 432.947 160.878 417.134 148.226C371.307 111.562 366.94 106.057 336.248 106.057C336.03 106.057 211 106.048 211 106.048V136.038H328.262C322.051 153.378 305.328 165.713 286 165.713C263.067 165.713 238.784 166.568 194.145 176.893C156.457 185.543 142.036 178.698 88.378 153.234C72.688 145.79 53.586 136.725 30 126.265V41.3661Z" fill="#312313" fill-opacity="0.5"/>
</g>
<defs>
<clipPath id="clip0_13_2">
<rect width="512" height="512" fill="white"/>
</clipPath>
</defs>
</svg>
