<svg width="512" height="512" viewBox="0 0 512 512" fill="none" xmlns="http://www.w3.org/2000/svg">
<g clip-path="url(#clip0_13_14)">
<path d="M485.043 207.266C467.793 190.328 445.051 181 421 181H376C367.73 181 361 174.27 361 166C361 74.4688 286.98 0 196 0H166C121.926 0 80.3125 17.3398 48.8281 48.8281C17.3398 80.3125 0 121.926 0 166V391H30V512H482V391H512V271C512 246.969 502.426 224.332 485.043 207.266ZM331 361H271V271H331V361ZM241 361H181V271H241V361ZM151 361H30V331H151V361ZM452 482H60V391H91V451H121V391H151V451H181V391H211V451H241V391H271V451H301V391H331V451H361V391H391V451H421V391H452V482ZM482 361H361V331H482V361ZM361 301V241H151V301H30V166C30 91.0078 91.0117 30 166 30H196C270.438 30 331 91.0078 331 166C331 190.812 351.188 211 376 211H421C454.637 211 482 237.914 482 271V301H361Z" fill="#312313" fill-opacity="0.5"/>
</g>
<defs>
<clipPath id="clip0_13_14">
<rect width="512" height="512" fill="white"/>
</clipPath>
</defs>
</svg>
