<svg width="821" height="197" viewBox="0 0 821 197" fill="none" xmlns="http://www.w3.org/2000/svg">
<path d="M214.683 193.848C212.894 193.848 212 192.447 212 189.646C212 187.369 212.894 186.231 214.683 186.231C221.836 186.231 226.995 185.268 230.159 183.342C233.324 181.415 234.906 177.3 234.906 170.996V25.4789C234.906 19.7002 233.392 15.7602 230.366 13.6589C227.477 11.5576 222.249 10.5069 214.683 10.5069C212.894 10.5069 212 9.28114 212 6.82958C212 4.37803 212.894 3.15225 214.683 3.15225C217.021 3.15225 220.048 3.23981 223.762 3.41491C227.614 3.59002 231.673 3.76513 235.937 3.94024C240.202 3.94024 244.123 3.94024 247.7 3.94024C251.139 3.94024 254.991 3.94024 259.256 3.94024C263.658 3.76513 267.785 3.59002 271.637 3.41491C275.627 3.23981 278.722 3.15225 280.923 3.15225C282.987 3.15225 284.019 4.37803 284.019 6.82958C284.019 9.28114 282.987 10.5069 280.923 10.5069C273.632 10.5069 268.404 11.5576 265.24 13.6589C262.214 15.7602 260.7 19.7002 260.7 25.4789V170.996C260.7 177.3 262.351 181.415 265.653 183.342C268.955 185.268 274.045 186.231 280.923 186.231C282.987 186.231 284.019 187.369 284.019 189.646C284.019 192.447 282.987 193.848 280.923 193.848C278.722 193.848 275.627 193.761 271.637 193.586C267.785 193.41 263.658 193.235 259.256 193.06C254.991 192.885 251.139 192.798 247.7 192.798C244.123 192.798 240.202 192.885 235.937 193.06C231.673 193.235 227.614 193.41 223.762 193.586C220.048 193.761 217.021 193.848 214.683 193.848Z" fill="white" fill-opacity="0.06"/>
<path d="M315.609 193.848C313.821 193.848 312.927 192.71 312.927 190.434C312.927 187.632 313.821 186.231 315.609 186.231C320.424 186.231 324.207 185.18 326.959 183.079C329.71 180.802 332.187 176.6 334.388 170.471C335.488 167.669 337.07 162.941 339.134 156.287C341.335 149.633 343.811 141.665 346.563 132.384C349.452 123.103 352.478 113.21 355.643 102.703C358.807 92.1962 361.971 81.6896 365.135 71.1829C368.299 60.6763 371.188 50.9576 373.802 42.0269C376.554 32.9211 378.823 25.1287 380.612 18.6496C382.538 12.1705 383.845 7.79269 384.533 5.51625C385.221 3.23981 385.977 1.75136 386.803 1.05091C387.766 0.350467 389.348 0.000244141 391.549 0.000244141C393.75 0.000244141 395.332 0.350467 396.295 1.05091C397.258 1.75136 398.083 3.23981 398.771 5.51625C399.872 9.01847 401.592 14.7096 403.93 22.5896C406.407 30.4696 409.227 39.5754 412.391 49.9069C415.555 60.2385 418.857 71.0954 422.296 82.4776C425.735 93.6847 429.037 104.629 432.201 115.311C435.503 125.993 438.461 135.711 441.075 144.467C443.689 153.047 445.752 159.702 447.265 164.43C449.742 172.485 452.356 178.176 455.107 181.503C457.996 184.655 460.747 186.231 463.361 186.231C465.15 186.231 466.044 187.632 466.044 190.434C466.044 192.71 465.15 193.848 463.361 193.848C461.986 193.848 459.165 193.848 454.901 193.848C450.636 193.673 444.927 193.586 437.773 193.586C431.857 193.586 426.217 193.673 420.852 193.848C415.486 193.848 412.116 193.848 410.74 193.848C408.952 193.848 408.057 192.71 408.057 190.434C408.057 187.632 408.952 186.231 410.74 186.231C415.142 186.231 418.169 185.355 419.82 183.604C421.608 181.678 422.503 179.489 422.503 177.038C422.503 174.411 422.159 172.222 421.471 170.471C421.333 170.121 420.852 168.37 420.026 165.218C419.201 162.066 418.169 158.301 416.931 153.923C415.83 149.37 414.661 144.905 413.423 140.527C412.185 135.974 411.153 132.122 410.327 128.97H354.611C353.785 132.472 352.685 136.937 351.309 142.366C350.071 147.619 348.902 152.785 347.801 157.863C346.838 162.941 346.357 167.056 346.357 170.208C346.357 176.687 347.595 180.978 350.071 183.079C352.685 185.18 356.262 186.231 360.802 186.231C362.59 186.231 363.484 187.632 363.484 190.434C363.484 192.71 362.59 193.848 360.802 193.848C359.426 193.848 356.812 193.848 352.96 193.848C349.246 193.673 344.362 193.586 338.309 193.586C332.943 193.586 328.197 193.673 324.07 193.848C319.943 193.848 317.123 193.848 315.609 193.848ZM357.293 120.302H407.645L383.501 33.6216L357.293 120.302Z" fill="white" fill-opacity="0.06"/>
<path d="M616.569 194.636C612.854 194.811 610.103 194.636 608.315 194.111C606.664 193.586 605.288 192.185 604.187 189.908C602.399 186.406 599.716 181.065 596.14 173.886C592.7 166.531 588.642 158.126 583.964 148.67C579.287 139.038 574.334 128.97 569.107 118.463C564.017 107.781 558.926 97.2745 553.836 86.9429C548.746 76.6114 544 67.0678 539.598 58.3122C535.333 49.3816 531.687 41.9394 528.661 35.9856C525.634 29.8567 523.639 25.9167 522.676 24.1656V150.771C522.676 164.079 524.671 173.36 528.661 178.614C532.788 183.692 537.603 186.231 543.106 186.231C543.793 186.231 544.413 186.581 544.963 187.282C545.651 187.807 545.995 188.682 545.995 189.908C545.995 191.134 545.651 192.097 544.963 192.798C544.413 193.498 543.793 193.848 543.106 193.848C541.73 193.848 538.91 193.761 534.645 193.586C530.38 193.235 525.221 193.06 519.168 193.06C512.014 193.06 506.58 193.235 502.866 193.586C499.289 193.761 496.744 193.848 495.231 193.848C493.442 193.848 492.548 192.535 492.548 189.908C492.548 187.457 493.442 186.231 495.231 186.231C501.009 186.231 505.686 183.604 509.263 178.351C512.977 173.098 514.835 163.992 514.835 151.034V28.6309C514.835 22.3269 513.734 17.774 511.533 14.9722C509.332 11.9954 505.411 10.5069 499.771 10.5069C497.982 10.5069 497.088 9.19358 497.088 6.5669C497.088 4.29047 497.982 3.15225 499.771 3.15225C500.871 3.15225 504.517 3.23981 510.707 3.41491C517.036 3.59002 525.29 3.67758 535.47 3.67758C537.809 3.67758 539.529 4.11535 540.629 4.99091C541.73 5.86646 542.762 7.35491 543.725 9.45625C544.275 10.682 545.926 14.0091 548.677 19.4376C551.429 24.866 554.868 31.6954 558.995 39.9256C563.26 48.1558 567.8 57.0865 572.615 66.7176C577.567 76.3487 582.52 86.0674 587.472 95.8736C592.425 105.68 597.034 114.873 601.298 123.454C605.701 131.859 609.415 139.038 612.442 144.992C615.468 150.771 617.463 154.623 618.426 156.55V46.2296C618.426 33.4465 616.5 24.3407 612.648 18.9123C608.934 13.3087 603.775 10.5069 597.171 10.5069C595.383 10.5069 594.489 9.19358 594.489 6.5669C594.489 4.29047 595.383 3.15225 597.171 3.15225C598.685 3.15225 601.642 3.32736 606.045 3.67758C610.447 3.85269 615.675 3.94024 621.728 3.94024C627.643 3.94024 632.734 3.85269 636.998 3.67758C641.263 3.32736 644.083 3.15225 645.459 3.15225C647.523 3.15225 648.554 4.29047 648.554 6.5669C648.554 9.19358 647.523 10.5069 645.459 10.5069C640.231 10.5069 635.691 13.2211 631.839 18.6496C628.125 23.9029 626.268 33.0962 626.268 46.2296V146.043C626.268 155.324 626.543 163.204 627.093 169.683C627.643 175.987 628.056 181.941 628.331 187.544C628.469 189.47 627.919 191.134 626.68 192.535C625.58 193.761 622.209 194.461 616.569 194.636Z" fill="white" fill-opacity="0.06"/>
<path d="M752.902 197C739.558 197 727.726 192.885 717.408 184.655C707.228 176.425 699.249 164.955 693.471 150.246C687.693 135.361 684.804 118.113 684.804 98.5003C684.804 78.5376 687.831 61.2016 693.884 46.4922C699.937 31.7829 708.054 20.4007 718.234 12.3456C728.552 4.11535 740.108 0.000244141 752.902 0.000244141C765.696 0.000244141 777.183 4.11535 787.364 12.3456C797.682 20.4007 805.867 31.7829 811.92 46.4922C817.973 61.2016 821 78.5376 821 98.5003C821 118.113 818.042 135.361 812.127 150.246C806.349 164.955 798.369 176.425 788.189 184.655C778.009 192.885 766.246 197 752.902 197ZM752.902 187.282C760.331 187.282 767.003 184.567 772.919 179.139C778.834 173.535 783.512 164.254 786.951 151.296C790.39 138.338 792.11 120.739 792.11 98.5003C792.11 76.086 790.39 58.3998 786.951 45.4416C783.512 32.4834 778.834 23.2025 772.919 17.5989C767.003 11.9954 760.331 9.19358 752.902 9.19358C745.473 9.19358 738.801 11.9954 732.885 17.5989C726.97 23.2025 722.292 32.4834 718.853 45.4416C715.414 58.3998 713.694 76.086 713.694 98.5003C713.694 120.739 715.414 138.338 718.853 151.296C722.292 164.254 726.97 173.535 732.885 179.139C738.801 184.567 745.473 187.282 752.902 187.282Z" fill="white" fill-opacity="0.06"/>
<path d="M38.6734 174.039C38.6734 174.001 38.6459 173.971 38.611 173.971L17.0265 173.971C16.9291 173.971 16.8842 173.916 16.8842 173.808L16.8842 170.263C16.8842 170.145 16.8293 170.082 16.7195 170.087C11.2778 170.106 5.73374 170.104 0.0923653 170.076C0.0374493 170.076 0.00748833 170.043 0.00748833 169.98L0.00748841 168.231C0.00748841 168.178 0.0299614 168.154 0.0773889 168.154L16.672 168.154C16.7918 168.154 16.8892 168.044 16.8892 167.912L16.8892 164.636C16.8892 164.542 16.9341 164.493 17.0215 164.493L38.3789 164.493C38.581 164.493 38.6809 164.383 38.6809 164.16L38.6809 158.087C38.6809 158.013 38.626 157.955 38.5586 157.955L17.0415 157.955C16.9566 157.955 16.8867 157.878 16.8867 157.782L16.8867 154.514C16.8867 154.396 16.8318 154.333 16.722 154.333L0.129815 154.333C0.0649141 154.333 0.0124863 154.275 0.0124863 154.204L0.0124863 152.399C0.0124863 152.344 0.0349465 152.32 0.0848702 152.32L16.6496 152.32C16.8043 152.32 16.8842 152.231 16.8842 152.061L16.8842 148.942C16.8842 148.813 16.9416 148.749 17.0589 148.749L38.4213 148.749C38.591 148.749 38.6759 148.656 38.6759 148.469L38.6759 142.382C38.6759 142.248 38.6135 142.179 38.4937 142.179L17.0989 142.179C16.9566 142.179 16.8842 142.102 16.8842 141.942L16.8842 138.743C16.8842 138.592 16.8143 138.515 16.6745 138.515L0.129816 138.515C0.0474415 138.515 0.00748971 138.471 0.00748971 138.38L0.00748978 136.73C0.00748979 136.65 0.0699042 136.584 0.142294 136.584L16.5822 136.584C16.7494 136.584 16.8842 136.436 16.8842 136.252L16.8842 132.855C16.8842 132.748 16.9316 132.698 17.0265 132.698L38.4587 132.698C38.5786 132.698 38.6759 132.591 38.6759 132.462L38.6759 122.94C38.6759 122.865 38.6235 122.808 38.5561 122.808L0.297056 122.808C0.107346 122.808 0.00998902 122.7 0.00998903 122.491L0.00998909 121.102C0.0099891 120.915 0.0948667 120.822 0.267104 120.822L38.5436 120.822C38.631 120.822 38.6759 120.772 38.6759 120.673L38.6759 110.769C38.6759 110.665 38.6285 110.615 38.5386 110.615L17.0415 110.615C16.9391 110.615 16.8892 110.56 16.8892 110.447L16.8892 107.155C16.8892 107.078 16.8318 107.012 16.7594 107.012L0.0948667 107.012C0.0499354 107.012 0.0124883 106.971 0.0124883 106.921L0.0124884 104.847C0.0124884 104.795 0.0349614 104.77 0.0823889 104.77L16.7519 104.77C16.8243 104.77 16.8842 104.707 16.8842 104.625L16.8842 101.33C16.8842 101.25 16.9416 101.181 17.0165 101.181L38.5286 101.181C38.631 101.181 38.6809 101.126 38.6809 101.016L38.6809 95.078C38.6809 94.979 38.6085 94.8964 38.5161 94.8964L17.039 94.8964C16.9366 94.8964 16.8867 94.8414 16.8867 94.7287L16.8867 91.2302C16.8867 91.0926 16.7869 90.9826 16.662 90.9826L0.202202 90.9826C0.0948656 90.9826 0.0050084 90.8864 0.00500841 90.7653L0.00500846 89.5469C0.00500847 89.3764 0.084887 89.2884 0.23965 89.2884L16.672 89.2884C16.8093 89.2884 16.8792 89.2114 16.8792 89.0601L16.8792 85.512C16.8792 85.3993 16.9291 85.3443 17.0315 85.3443L38.4687 85.3443C38.606 85.3443 38.6734 85.2673 38.6734 85.116L38.6734 75.6601C38.6734 75.5528 38.6235 75.4978 38.5261 75.4978L0.102349 75.4978C0.0349517 75.4978 1.1829e-05 75.4593 1.18323e-05 75.385L1.19215e-05 73.3442C1.19232e-05 73.3057 0.0174883 73.2865 0.0499387 73.2865L38.4113 73.2865C38.5536 73.2865 38.6684 73.16 38.6684 73.0032L38.6684 63.2722C38.6684 63.1567 38.5835 63.0632 38.4787 63.0632L17.0415 63.0632C16.9516 63.0632 16.8767 62.9835 16.8767 62.8844L16.8767 59.6142C16.8767 59.5207 16.8068 59.4437 16.722 59.4437L0.264608 59.4437C0.0923708 59.4437 0.00500978 59.3474 0.00500979 59.1576L0.00500985 57.7412C0.00500986 57.5431 0.0923629 57.4469 0.272088 57.4469L16.6021 57.4469C16.7594 57.4469 16.8867 57.3038 16.8867 57.1278L16.8867 54.0474C16.8867 53.9346 16.9391 53.8768 17.0415 53.8768L38.4787 53.8768C38.586 53.8768 38.6759 53.7806 38.6759 53.6595L38.6759 47.7077C38.6759 47.6361 38.6235 47.5784 38.5561 47.5784L17.0614 47.5784C16.9641 47.5784 16.8867 47.4904 16.8867 47.3804L16.8867 44.8802C16.8867 44.7675 16.8043 44.6767 16.702 44.6767C11.1904 44.6987 5.65137 44.7015 0.0848749 44.6877C0.0299589 44.6877 0.0025118 44.6575 0.0025118 44.5969L0.00251188 42.7487C0.00251188 42.7074 0.0324557 42.6744 0.0698985 42.6744L16.6795 42.6744C16.7943 42.6744 16.8867 42.5699 16.8867 42.4434L16.8867 38.2242C16.8867 38.161 16.9366 38.1087 16.994 38.1087L38.4587 38.1087C38.5761 38.1087 38.6734 38.0015 38.6734 37.8722L38.6734 31.7113C38.6734 31.6233 38.6085 31.5545 38.5261 31.5545L17.049 31.5545C16.9341 31.5545 16.8792 31.4912 16.8792 31.3647L16.8792 28.111C16.8792 28.0147 16.8343 27.9652 16.7444 27.9652L0.104849 27.9652C0.0474372 27.9652 1.39075e-05 27.9102 1.39102e-05 27.847L1.39896e-05 26.0317C1.3992e-05 25.9767 0.0399493 25.9327 0.089873 25.9327L16.6621 25.9327C16.8043 25.9327 16.8792 25.8529 16.8792 25.6934L16.8792 22.5222C16.8792 22.4231 16.9516 22.3406 17.044 22.3406L38.4413 22.3406C38.5935 22.3406 38.6684 22.2581 38.6684 22.0903L38.6684 11.2592C38.6684 11.2235 38.641 11.196 38.611 11.196L0.257114 11.196C0.0873732 11.196 0.00251327 11.1025 0.00251327 10.9182L0.00251374 0.191584C0.00251375 0.0870684 0.0773999 0.00454133 0.174751 0.00454134C36.669 -0.00095789 73.1482 -0.000942194 109.62 0.00180981C112.006 0.00180991 114.373 0.491372 116.537 0.6784C117.982 0.804919 119.33 1.25324 120.79 1.70156C120.818 1.70706 121.192 1.79782 121.916 1.96834C122.301 2.05911 122.75 2.21039 123.262 2.42767C126.057 3.5911 127.994 4.46571 129.075 5.0433C132.043 6.63304 134.167 7.95049 135.448 8.9874C138.396 11.3775 140.263 12.9727 141.047 13.7814C142.754 15.5416 144.155 17.1424 145.251 18.5836C145.642 19.0952 146.202 19.8405 146.93 20.8169C147.545 21.6393 148.064 22.4176 148.488 23.152C149.334 24.6207 150.121 25.8391 150.75 27.0961C151.626 28.8508 152.597 31.0979 153.668 33.8373C153.927 34.4947 154.142 35.1438 154.312 35.7846C154.606 36.8848 155.193 38.1582 155.395 39.4262C155.532 40.2926 155.652 40.9994 155.849 41.742C156.246 43.2217 156.483 44.4319 156.558 45.3726C156.678 46.888 156.783 48.3375 156.868 49.721C157.082 53.0985 157.035 56.432 156.73 59.727C156.613 60.9784 156.683 62.6369 156.406 63.9351C155.862 66.4737 155.545 67.9452 155.46 68.3468C155.24 69.3672 155.016 70.2033 154.781 70.8606C154.357 72.0433 154.202 72.9894 153.7 74.1611C153.271 75.165 152.851 76.1442 152.44 77.0958C150.742 81.0069 148.373 84.6044 145.335 87.8857C143.466 89.9017 142.045 91.3182 141.069 92.1268C138.039 94.6517 134.547 96.9895 130.593 99.1431C130.051 99.4401 129.07 99.8829 127.655 100.472C127.488 100.54 126.784 100.87 125.538 101.467C124.884 101.781 124.405 101.976 124.093 102.064C122.817 102.422 121.639 103.117 120.458 103.39C119.036 103.72 117.728 104.372 116.235 104.71C115.114 104.966 114.425 105.128 114.171 105.199C113.454 105.403 112.516 105.667 111.36 105.992C110.269 106.297 109.343 106.619 108.584 106.949C102.211 109.732 97.0018 114.086 92.953 120.008C90.4143 123.718 88.4274 127.428 86.9921 131.147C86.1309 133.375 85.2397 136.155 84.3137 139.492C84.1714 140.009 84.1739 140.738 83.9916 141.329C83.5898 142.663 83.2952 144.022 83.1105 145.405C82.8259 147.531 82.6836 148.604 82.6811 148.631C81.9173 153.962 81.5354 158.219 81.5429 161.399C81.5529 164.457 81.5479 167.51 81.5404 170.566C81.5379 171.292 81.4031 172.32 81.131 173.66C80.9164 174.719 80.7067 175.775 80.4995 176.831C80.2449 178.132 79.9778 179.172 79.7057 179.956C79.2464 181.268 78.7571 182.497 78.2379 183.649C77.9284 184.337 77.5565 185 77.1222 185.641C76.5855 186.427 76.0762 187.283 75.3474 188.182C73.7049 190.212 71.688 191.901 69.2991 193.259C68.6351 193.636 67.9836 193.98 67.3546 194.283C66.7081 194.596 66.0516 194.855 65.3901 195.061C63.1285 195.768 61.848 196.15 61.5584 196.208C60.6199 196.398 58.87 196.596 56.3164 196.802C54.6739 196.934 52.9191 197.003 51.0495 197C33.8158 196.989 16.8992 196.986 0.30205 196.989C0.0998594 196.989 6.52162e-06 196.879 6.53124e-06 196.659L7.00733e-06 185.767C7.01009e-06 185.704 0.0499289 185.649 0.107341 185.649L38.4962 185.649C38.586 185.649 38.6634 185.566 38.6634 185.462L38.6634 174.048L38.6734 174.039Z" fill="white" fill-opacity="0.06"/>
<path d="M67.4068 152.789C65.8023 152.789 65 151.806 65 149.84C65 148.243 65.8023 147.444 67.4068 147.444C72.5906 147.444 76.7871 145.602 79.9961 141.916C83.2052 138.107 84.8097 131.719 84.8097 122.751V36.8753C84.8097 32.4526 83.7606 29.2584 81.6624 27.2927C79.6876 25.2042 76.1699 24.1599 71.1095 24.1599C69.505 24.1599 68.7027 23.2999 68.7027 21.5799C68.7027 19.86 69.505 19 71.1095 19C72.2204 19 76.0465 19.0614 82.588 19.1843C89.1296 19.3071 96.9053 19.3686 105.915 19.3686C110.112 19.3686 112.765 20.9657 113.876 24.1599C114.123 24.7742 114.802 26.7398 115.913 30.0569C117.147 33.374 118.628 37.551 120.356 42.5881C122.207 47.6251 124.182 53.1536 126.28 59.1734C128.379 65.0705 130.477 70.9675 132.575 76.8645C134.797 82.7615 136.833 88.29 138.685 93.4499C140.536 98.4869 142.079 102.725 143.313 106.165C144.547 109.605 145.288 111.694 145.535 112.431C146.028 111.325 147.078 108.622 148.682 104.322C150.287 99.8997 152.2 94.5556 154.421 88.29C156.643 81.9015 158.988 75.2674 161.457 68.3875C163.925 61.5077 166.208 54.935 168.307 48.6694C170.528 42.4038 172.38 37.121 173.861 32.8211C175.342 28.3984 176.206 25.757 176.453 24.897C177.563 21.2114 180.279 19.3686 184.599 19.3686C193.609 19.3686 201.138 19.3071 207.185 19.1843C213.233 19.0614 216.689 19 217.553 19C219.158 19 219.96 19.86 219.96 21.5799C219.96 23.2999 219.158 24.1599 217.553 24.1599C212.986 24.1599 209.777 25.1427 207.926 27.1084C206.198 28.9512 205.334 31.654 205.334 35.2168V135.65C205.334 139.582 206.075 142.53 207.556 144.496C209.037 146.462 211.999 147.444 216.442 147.444C218.047 147.444 218.849 148.243 218.849 149.84C218.849 151.806 218.047 152.789 216.442 152.789C215.208 152.789 212.74 152.727 209.037 152.604C205.457 152.359 200.829 152.236 195.151 152.236C191.572 152.236 187.808 152.297 183.858 152.42C180.032 152.42 176.699 152.481 173.861 152.604C171.022 152.727 169.171 152.789 168.307 152.789C166.455 152.789 165.53 151.806 165.53 149.84C165.53 148.243 166.455 147.444 168.307 147.444C173.984 147.444 177.872 146.584 179.97 144.865C182.068 143.022 183.118 139.95 183.118 135.65V27.2927C175.095 50.5122 168.307 69.8618 162.752 85.3415C157.322 100.821 152.94 113.107 149.608 122.198C146.399 131.166 144.054 137.555 142.573 141.363C141.215 145.172 140.536 147.076 140.536 147.076C140.166 148.059 139.795 148.673 139.425 148.919C139.178 149.042 138.746 149.103 138.129 149.103C137.142 149.103 136.401 148.55 135.908 147.444C135.784 147.322 135.044 145.479 133.686 141.916C132.328 138.23 130.477 133.439 128.132 127.542C125.91 121.645 123.38 115.072 120.541 107.824C117.702 100.575 114.802 93.2042 111.84 85.71C109.001 78.093 106.224 70.8446 103.509 63.9648C100.793 56.9621 98.3864 50.8193 96.2882 45.5366C94.19 40.131 92.6472 36.0768 91.6598 33.374V122.566C91.6598 131.903 93.5111 138.415 97.2139 142.1C100.917 145.663 105.236 147.444 110.173 147.444C112.025 147.444 112.951 148.243 112.951 149.84C112.951 151.806 112.025 152.789 110.173 152.789C108.939 152.789 106.409 152.727 102.583 152.604C98.8801 152.359 94.3134 152.236 88.8827 152.236C82.4646 152.236 77.5893 152.359 74.2569 152.604C71.0478 152.727 68.7645 152.789 67.4068 152.789Z" fill="#BA903A"/>
<path d="M256.281 155C248.259 155 241.594 153.157 236.287 149.472C231.103 145.786 228.511 139.643 228.511 131.043C228.511 123.795 230.733 117.836 235.176 113.168C239.743 108.377 246.099 104.875 254.245 102.664C262.391 100.33 271.895 99.224 282.756 99.3469V92.1599C282.756 85.5257 281.584 80.3044 279.238 76.4959C276.893 72.5646 273.129 70.5989 267.945 70.5989C263.132 70.5989 259.491 71.5203 257.022 73.3631C254.554 75.0831 253.936 77.3559 255.171 80.1816C257.145 84.3586 257.084 88.1057 254.986 91.4228C252.887 94.617 249.308 96.2141 244.248 96.2141C241.162 96.2141 238.57 95.2313 236.472 93.2656C234.374 91.1771 233.324 88.29 233.324 84.6043C233.324 80.9187 234.867 77.4788 237.953 74.2845C241.039 71.0903 245.235 68.5104 250.542 66.5447C255.973 64.4562 262.082 63.4119 268.871 63.4119C280.102 63.4119 288.557 65.869 294.235 70.7832C299.912 75.6974 302.751 82.4544 302.751 91.0542V130.122C302.751 135.036 303.245 138.23 304.232 139.705C305.343 141.056 306.701 141.732 308.305 141.732C309.539 141.732 310.588 141.547 311.452 141.179C312.44 140.687 313.18 140.196 313.674 139.705C315.032 138.353 316.389 138.415 317.747 139.889C318.364 140.503 318.611 141.179 318.488 141.916C318.364 142.653 318.056 143.39 317.562 144.127C315.834 146.953 313.674 149.349 311.082 151.314C308.614 153.157 305.59 154.079 302.01 154.079C297.444 154.079 293.556 152.911 290.347 150.577C287.261 148.243 285.101 144.619 283.867 139.705C281.645 143.759 278.436 147.322 274.24 150.393C270.167 153.464 264.181 155 256.281 155ZM265.538 143.943C269.118 143.943 272.203 142.96 274.795 140.995C277.387 138.906 279.362 136.449 280.72 133.623C282.077 130.798 282.756 128.095 282.756 125.515V105.797C273.006 105.551 265.168 107.087 259.244 110.404C253.319 113.721 250.357 119.556 250.357 127.911C250.357 132.702 251.283 136.265 253.134 138.599C254.986 140.81 257.084 142.285 259.429 143.022C261.897 143.636 263.934 143.943 265.538 143.943Z" fill="#BA903A"/>
<path d="M372.034 155C357.964 155 346.917 151.192 338.895 143.575C330.995 135.958 327.046 125.023 327.046 110.772C327.046 101.804 328.835 93.757 332.415 86.6314C335.994 79.5059 341.055 73.8546 347.596 69.6775C354.261 65.5004 361.975 63.4119 370.738 63.4119C377.403 63.4119 383.204 64.7019 388.141 67.2818C393.078 69.8618 397.151 73.2403 400.36 77.4173C403.569 81.5944 405.976 86.14 407.581 91.0542C409.185 95.8455 409.987 100.575 409.987 105.244C409.987 107.21 408.753 108.192 406.285 108.192H348.892C348.645 117.529 349.447 124.839 351.299 130.122C353.274 135.405 356.174 139.09 360 141.179C363.826 143.267 368.455 144.312 373.886 144.312C380.18 144.312 385.796 142.96 390.733 140.257C395.793 137.555 399.928 134.176 403.137 130.122C404.495 128.525 406.038 128.279 407.766 129.385C409.494 130.491 409.74 131.965 408.506 133.808C406.038 137.493 403.199 140.933 399.99 144.127C396.904 147.322 393.078 149.963 388.511 152.051C384.068 154.017 378.576 155 372.034 155ZM349.262 101.005H387.771C388.018 95.1084 387.586 89.8257 386.475 85.1572C385.487 80.4887 383.698 76.8031 381.106 74.1003C378.637 71.3975 375.058 70.0461 370.368 70.0461C364.444 70.0461 359.815 72.8717 356.483 78.523C353.15 84.0515 350.743 91.5456 349.262 101.005Z" fill="#BA903A"/>
<path d="M468.365 155C464.662 155 460.898 154.509 457.071 153.526C453.245 152.666 449.728 151.683 446.519 150.577C443.433 149.349 441.088 148.366 439.483 147.629C437.755 148.489 436.398 149.349 435.41 150.209C434.423 151.069 433.436 151.99 432.448 152.973C431.214 154.201 429.918 154.57 428.56 154.079C427.326 153.587 426.709 152.481 426.709 150.762V125.146C426.709 123.549 427.388 122.628 428.745 122.382C430.227 122.136 431.337 122.628 432.078 123.856C441.335 138.967 453.554 146.523 468.735 146.523C474.66 146.523 479.658 145.294 483.731 142.837C487.928 140.38 490.026 136.756 490.026 131.965C490.026 128.771 488.545 126.313 485.583 124.593C482.62 122.874 478.794 121.522 474.104 120.539C469.414 119.434 464.477 118.266 459.293 117.038C454.109 115.809 449.172 114.151 444.482 112.062C439.792 109.974 435.966 107.087 433.004 103.401C430.041 99.5926 428.56 94.5556 428.56 88.29C428.56 84.1129 429.671 80.1201 431.893 76.3116C434.238 72.5032 437.756 69.4318 442.446 67.0976C447.136 64.6405 453.06 63.4119 460.219 63.4119C465.65 63.4119 470.957 64.2105 476.141 65.8076C481.324 67.2818 485.274 68.6947 487.989 70.0461C488.73 69.4318 489.656 68.6332 490.766 67.6504C492.001 66.6676 493.112 65.8076 494.099 65.0705C495.21 64.3333 496.197 64.0876 497.061 64.3333C498.049 64.4562 498.542 65.3162 498.542 66.9133V89.9485C498.542 91.5456 497.802 92.5285 496.321 92.897C494.839 93.1427 493.79 92.6513 493.173 91.4228C490.088 84.1743 485.706 78.953 480.029 75.7588C474.351 72.5646 468.673 70.9675 462.996 70.9675C456.578 70.9675 451.703 72.3803 448.37 75.206C445.038 77.9088 443.371 81.0416 443.371 84.6043C443.371 87.5528 444.852 89.8257 447.815 91.4228C450.777 92.897 454.541 94.1256 459.108 95.1084C463.798 95.9684 468.735 96.9512 473.919 98.0569C479.103 99.0397 483.978 100.575 488.545 102.664C493.235 104.752 497.061 107.762 500.023 111.694C502.986 115.502 504.467 120.662 504.467 127.173C504.467 132.333 502.986 137.063 500.023 141.363C497.061 145.54 492.865 148.857 487.434 151.314C482.003 153.771 475.647 155 468.365 155Z" fill="#BA903A"/>
<path d="M553.114 155C547.807 155 543.179 153.771 539.229 151.314C535.279 148.857 533.305 144.25 533.305 137.493V72.8103H520.345C518.37 72.8103 517.383 71.8275 517.383 69.8618V69.3089C517.383 68.449 517.63 67.8347 518.123 67.4661C518.741 66.9747 519.481 66.6061 520.345 66.3604C527.504 63.9033 532.996 60.2177 536.822 55.3035C540.772 50.2665 543.24 43.2638 544.228 34.2954C544.228 32.3297 545.215 31.3469 547.19 31.3469H550.337C551.078 31.3469 551.757 31.654 552.374 32.2683C552.991 32.7597 553.299 33.4354 553.299 34.2954V65.6233H575.886C577.861 65.6233 578.848 66.5447 578.848 68.3875V69.8618C578.848 71.8275 577.861 72.8103 575.886 72.8103H553.299V131.043C553.299 137.8 556.817 141.179 563.852 141.179C567.185 141.179 570.147 140.196 572.739 138.23C575.454 136.265 577.491 133.992 578.848 131.412C579.836 129.569 581.379 129.262 583.477 130.491C584.341 130.982 584.773 131.596 584.773 132.333C584.773 133.07 584.588 133.93 584.217 134.913C582.119 140.196 578.478 144.864 573.294 148.919C568.234 152.973 561.507 155 553.114 155Z" fill="#BA903A"/>
<path d="M597.387 152.789C595.535 152.789 594.61 151.744 594.61 149.656C594.61 147.69 595.535 146.707 597.387 146.707C602.447 146.707 606.212 145.786 608.68 143.943C611.149 142.1 612.383 138.967 612.383 134.545V81.8401C612.383 79.1373 612.074 77.1102 611.457 75.7588C610.963 74.4074 609.853 73.6088 608.125 73.3631C607.508 73.2403 606.335 73.1174 604.607 72.9946C602.879 72.7489 601.151 72.5646 599.423 72.4417C597.819 72.3189 596.708 72.196 596.091 72.0732C594.363 71.7046 593.499 70.7218 593.499 69.1247C593.499 67.0361 594.425 65.9919 596.276 65.9919C596.646 65.9919 598.251 65.9919 601.089 65.9919C604.052 65.869 607.322 65.8076 610.902 65.8076C614.604 65.8076 617.937 65.8076 620.899 65.8076C623.985 65.6847 625.898 65.6233 626.638 65.6233C629.724 65.6233 631.267 67.2204 631.267 70.4146V83.6829C632.995 80.7344 635.278 77.7245 638.117 74.6531C640.956 71.4589 644.226 68.8175 647.929 66.729C651.755 64.5176 655.952 63.4119 660.518 63.4119C667.677 63.4119 672.984 64.8862 676.44 67.8347C679.896 70.7832 681.624 74.5917 681.624 79.2602C681.624 81.963 680.575 84.7272 678.477 87.5528C676.502 90.2556 673.478 91.607 669.405 91.607C664.838 91.607 661.691 90.4399 659.963 88.1057C658.359 85.6486 657.556 83.2529 657.556 80.9187C657.556 78.4616 657.186 76.7416 656.446 75.7588C655.705 74.6531 654.409 74.1003 652.558 74.1003C649.349 74.1003 646.139 75.636 642.93 78.7073C639.845 81.7787 637.253 85.7715 635.155 90.6856C633.18 95.477 632.193 100.698 632.193 106.35V134.176C632.193 138.845 633.612 142.1 636.451 143.943C639.413 145.786 643.116 146.707 647.559 146.707C649.534 146.707 650.521 147.69 650.521 149.656C650.521 151.744 649.534 152.789 647.559 152.789C646.325 152.789 643.424 152.727 638.857 152.604C634.414 152.359 628.86 152.236 622.195 152.236C616.518 152.236 611.272 152.359 606.458 152.604C601.768 152.727 598.744 152.789 597.387 152.789Z" fill="#BA903A"/>
<path d="M736.493 155C727.606 155 719.892 153.034 713.351 149.103C706.809 145.049 701.749 139.582 698.169 132.702C694.59 125.822 692.8 117.959 692.8 109.114C692.8 100.268 694.59 92.4056 698.169 85.5257C701.749 78.6459 706.809 73.2403 713.351 69.3089C719.892 65.3776 727.606 63.4119 736.493 63.4119C745.379 63.4119 753.032 65.3776 759.45 69.3089C765.991 73.2403 771.052 78.6459 774.631 85.5257C778.21 92.4056 780 100.268 780 109.114C780 117.959 778.21 125.822 774.631 132.702C771.052 139.582 765.991 145.049 759.45 149.103C753.032 153.034 745.379 155 736.493 155ZM736.493 148.734C744.145 148.734 749.637 145.11 752.97 137.862C756.426 130.491 758.154 120.908 758.154 109.114C758.154 97.4426 756.426 87.9828 752.97 80.7344C749.637 73.3631 744.145 69.6775 736.493 69.6775C728.84 69.6775 723.286 73.3631 719.83 80.7344C716.375 87.9828 714.647 97.4426 714.647 109.114C714.647 120.908 716.375 130.491 719.83 137.862C723.286 145.11 728.84 148.734 736.493 148.734Z" fill="#BA903A"/>
</svg>
