<svg width="512" height="512" viewBox="0 0 512 512" fill="none" xmlns="http://www.w3.org/2000/svg">
<g clip-path="url(#clip0_13_6)">
<path d="M512 35.213L271 172.275V403.894C258.106 396.192 242.417 392 226 392C181.097 392 151 421.308 151 452C151 483.009 181.539 512 226 512C270.903 512 301 482.692 301 452V264.725L482 161.787V282.894C469.106 275.192 453.417 271 437 271C392.097 271 362 300.308 362 331C362 362.009 392.539 391 437 391C481.903 391 512 361.692 512 331V35.213ZM226 482C201.607 482 181 468.262 181 452C181 435.738 201.607 422 226 422C250.393 422 271 435.738 271 452C271 468.262 250.393 482 226 482ZM301 230.213V189.725L482 86.787V127.275L301 230.213ZM437 361C412.607 361 392 347.262 392 331C392 314.738 412.607 301 437 301C461.393 301 482 314.738 482 331C482 347.262 461.393 361 437 361Z" fill="#312313" fill-opacity="0.5"/>
<path d="M76 361C120.903 361 151 331.692 151 301V95.401C157.266 102.829 163.918 109.56 170.335 116.048C192.155 138.111 211 157.165 211 196V211H241V196C241 144.835 214.79 118.334 191.665 94.952C169.845 72.889 151 53.835 151 15V0H121V252.894C108.106 245.192 92.417 241 76 241C34.093 241 0 267.916 0 301C0 334.084 34.093 361 76 361ZM76 271C100.393 271 121 284.738 121 301C121 317.262 100.393 331 76 331C51.495 331 30 316.981 30 301C30 285.019 51.495 271 76 271Z" fill="#312313" fill-opacity="0.5"/>
</g>
<defs>
<clipPath id="clip0_13_6">
<rect width="512" height="512" fill="white"/>
</clipPath>
</defs>
</svg>
