<svg width="512" height="512" viewBox="0 0 512 512" fill="none" xmlns="http://www.w3.org/2000/svg">
<path d="M193.634 7.076L173.633 0.001L173.628 97.273L158.593 105.668L143.558 97.273L143.563 0L123.56 7.076C81.71 21.881 53.593 61.667 53.593 106.078C53.593 147.88 78.15 184.051 113.593 200.933V261H98.593V452C98.593 485.084 125.509 512 158.593 512C191.677 512 218.593 485.084 218.593 452V261H203.593V200.933C239.036 184.051 263.593 147.88 263.593 106.078C263.592 61.665 235.478 21.879 193.634 7.076ZM158.592 482C142.05 482 128.592 468.542 128.592 452V291H188.592V452C188.592 468.542 175.134 482 158.592 482ZM173.592 261H143.592V210.002C148.493 210.706 153.499 211.078 158.592 211.078C163.685 211.078 168.691 210.706 173.592 210.002V261ZM158.592 181.078C117.237 181.078 83.592 147.433 83.592 106.078C83.592 82.103 95.058 60.018 113.56 46.095L113.556 114.883L158.592 140.028L203.626 114.883L203.63 46.094C222.126 60.018 233.592 82.105 233.592 106.078C233.592 147.434 199.947 181.078 158.592 181.078Z" fill="#312313" fill-opacity="0.5"/>
<path d="M428.27 323.014V251H443.27V60C443.27 26.916 416.354 0 383.27 0C350.186 0 323.27 26.916 323.27 60V251H338.27V323.014L308.132 384.915L341.719 512H424.821L458.408 384.915L428.27 323.014ZM383.27 30C399.812 30 413.27 43.458 413.27 60V221H353.27V60C353.27 43.458 366.728 30 383.27 30ZM401.719 482H364.821L339.985 388.026L368.271 329.927V251H398.271V329.928L426.556 388.027L401.719 482Z" fill="#312313" fill-opacity="0.5"/>
</svg>
